<?xml version="1.0"?>
<svg xmlns="http://www.w3.org/2000/svg" xmlns:xlink="http://www.w3.org/1999/xlink" version="1.1" width="260px" height="260px" viewBox="0 0 260 260"><rect x="0" y="0" width="260" height="260" fill="#ffffff" fill-opacity="1"/><path fill="#000000" fill-opacity="1" d="M20,20L41,20L41,23L20,23ZM47,20L50,20L50,23L47,23ZM59,20L62,20L62,23L59,23ZM77,20L80,20L80,23L77,23ZM83,20L89,20L89,23L83,23ZM92,20L95,20L95,23L92,23ZM98,20L104,20L104,23L98,23ZM110,20L131,20L131,23L110,23ZM140,20L143,20L143,23L140,23ZM149,20L152,20L152,23L149,23ZM155,20L161,20L161,23L155,23ZM170,20L179,20L179,23L170,23ZM185,20L188,20L188,23L185,23ZM191,20L209,20L209,23L191,23ZM212,20L215,20L215,23L212,23ZM218,20L239,20L239,23L218,23ZM20,23L23,23L23,26L20,26ZM38,23L41,23L41,26L38,26ZM44,23L47,23L47,26L44,26ZM50,23L53,23L53,26L50,26ZM56,23L62,23L62,26L56,26ZM77,23L83,23L83,26L77,26ZM89,23L92,23L92,26L89,26ZM101,23L104,23L104,26L101,26ZM107,23L110,23L110,26L107,26ZM125,23L131,23L131,26L125,26ZM149,23L152,23L152,26L149,26ZM155,23L161,23L161,26L155,26ZM167,23L179,23L179,26L167,26ZM182,23L185,23L185,26L182,26ZM191,23L194,23L194,26L191,26ZM200,23L203,23L203,26L200,26ZM206,23L209,23L209,26L206,26ZM218,23L221,23L221,26L218,26ZM236,23L239,23L239,26L236,26ZM20,26L23,26L23,29L20,29ZM26,26L35,26L35,29L26,29ZM38,26L41,26L41,29L38,29ZM47,26L50,26L50,29L47,29ZM59,26L65,26L65,29L59,29ZM74,26L77,26L77,29L74,29ZM80,26L83,26L83,29L80,29ZM86,26L89,26L89,29L86,29ZM92,26L101,26L101,29L92,29ZM107,26L113,26L113,29L107,29ZM116,26L122,26L122,29L116,29ZM128,26L134,26L134,29L128,29ZM137,26L152,26L152,29L137,29ZM173,26L176,26L176,29L173,29ZM185,26L197,26L197,29L185,29ZM203,26L206,26L206,29L203,29ZM218,26L221,26L221,29L218,29ZM224,26L233,26L233,29L224,29ZM236,26L239,26L239,29L236,29ZM20,29L23,29L23,32L20,32ZM26,29L35,29L35,32L26,32ZM38,29L41,29L41,32L38,32ZM44,29L47,29L47,32L44,32ZM50,29L56,29L56,32L50,32ZM59,29L65,29L65,32L59,32ZM68,29L71,29L71,32L68,32ZM110,29L113,29L113,32L110,32ZM116,29L119,29L119,32L116,32ZM122,29L125,29L125,32L122,32ZM128,29L134,29L134,32L128,32ZM137,29L140,29L140,32L137,32ZM155,29L161,29L161,32L155,32ZM164,29L167,29L167,32L164,32ZM170,29L173,29L173,32L170,32ZM176,29L182,29L182,32L176,32ZM185,29L188,29L188,32L185,32ZM191,29L197,29L197,32L191,32ZM200,29L203,29L203,32L200,32ZM206,29L212,29L212,32L206,32ZM218,29L221,29L221,32L218,32ZM224,29L233,29L233,32L224,32ZM236,29L239,29L239,32L236,32ZM20,32L23,32L23,35L20,35ZM26,32L35,32L35,35L26,35ZM38,32L41,32L41,35L38,35ZM47,32L53,32L53,35L47,35ZM59,32L62,32L62,35L59,35ZM68,32L71,32L71,35L68,35ZM74,32L89,32L89,35L74,35ZM92,32L107,32L107,35L92,35ZM110,32L113,32L113,35L110,35ZM119,32L122,32L122,35L119,35ZM125,32L128,32L128,35L125,35ZM134,32L146,32L146,35L134,35ZM152,32L167,32L167,35L152,35ZM170,32L194,32L194,35L170,35ZM197,32L200,32L200,35L197,35ZM209,32L215,32L215,35L209,35ZM218,32L221,32L221,35L218,35ZM224,32L233,32L233,35L224,35ZM236,32L239,32L239,35L236,35ZM20,35L23,35L23,38L20,38ZM38,35L41,35L41,38L38,38ZM44,35L53,35L53,38L44,38ZM56,35L59,35L59,38L56,38ZM77,35L80,35L80,38L77,38ZM83,35L86,35L86,38L83,38ZM89,35L95,35L95,38L89,38ZM104,35L107,35L107,38L104,38ZM113,35L116,35L116,38L113,38ZM122,35L125,35L125,38L122,38ZM128,35L134,35L134,38L128,38ZM152,35L155,35L155,38L152,38ZM164,35L176,35L176,38L164,38ZM179,35L182,35L182,38L179,38ZM188,35L191,35L191,38L188,38ZM194,35L197,35L197,38L194,38ZM203,35L209,35L209,38L203,38ZM218,35L221,35L221,38L218,38ZM236,35L239,35L239,38L236,38ZM20,38L41,38L41,41L20,41ZM44,38L47,38L47,41L44,41ZM50,38L53,38L53,41L50,41ZM56,38L59,38L59,41L56,41ZM62,38L65,38L65,41L62,41ZM68,38L71,38L71,41L68,41ZM74,38L77,38L77,41L74,41ZM80,38L83,38L83,41L80,41ZM86,38L89,38L89,41L86,41ZM92,38L95,38L95,41L92,41ZM98,38L101,38L101,41L98,41ZM104,38L107,38L107,41L104,41ZM110,38L113,38L113,41L110,41ZM116,38L119,38L119,41L116,41ZM122,38L125,38L125,41L122,41ZM128,38L131,38L131,41L128,41ZM134,38L137,38L137,41L134,41ZM140,38L143,38L143,41L140,41ZM146,38L149,38L149,41L146,41ZM152,38L155,38L155,41L152,41ZM158,38L161,38L161,41L158,41ZM164,38L167,38L167,41L164,41ZM170,38L173,38L173,41L170,41ZM176,38L179,38L179,41L176,41ZM182,38L185,38L185,41L182,41ZM188,38L191,38L191,41L188,41ZM194,38L197,38L197,41L194,41ZM200,38L203,38L203,41L200,41ZM206,38L209,38L209,41L206,41ZM212,38L215,38L215,41L212,41ZM218,38L239,38L239,41L218,41ZM71,41L74,41L74,44L71,44ZM86,41L89,41L89,44L86,44ZM92,41L95,41L95,44L92,44ZM104,41L113,41L113,44L104,44ZM128,41L134,41L134,44L128,44ZM140,41L155,41L155,44L140,44ZM164,41L167,41L167,44L164,44ZM170,41L179,41L179,44L170,44ZM182,41L185,41L185,44L182,44ZM191,41L194,41L194,44L191,44ZM206,41L215,41L215,44L206,44ZM20,44L35,44L35,47L20,47ZM38,44L50,44L50,47L38,47ZM53,44L56,44L56,47L53,47ZM59,44L62,44L62,47L59,47ZM68,44L71,44L71,47L68,47ZM74,44L86,44L86,47L74,47ZM89,44L107,44L107,47L89,47ZM122,44L125,44L125,47L122,47ZM128,44L134,44L134,47L128,47ZM152,44L167,44L167,47L152,47ZM170,44L182,44L182,47L170,47ZM200,44L218,44L218,47L200,47ZM221,44L224,44L224,47L221,47ZM227,44L230,44L230,47L227,47ZM233,44L236,44L236,47L233,47ZM26,47L29,47L29,50L26,50ZM32,47L35,47L35,50L32,50ZM47,47L53,47L53,50L47,50ZM56,47L62,47L62,50L56,50ZM68,47L71,47L71,50L68,50ZM77,47L80,47L80,50L77,50ZM86,47L89,47L89,50L86,50ZM98,47L107,47L107,50L98,50ZM113,47L131,47L131,50L113,50ZM140,47L149,47L149,50L140,50ZM152,47L155,47L155,50L152,50ZM161,47L164,47L164,50L161,50ZM167,47L173,47L173,50L167,50ZM176,47L182,47L182,50L176,50ZM185,47L191,47L191,50L185,50ZM197,47L200,47L200,50L197,50ZM206,47L209,47L209,50L206,50ZM26,50L32,50L32,53L26,53ZM35,50L41,50L41,53L35,53ZM44,50L47,50L47,53L44,53ZM53,50L71,50L71,53L53,53ZM74,50L89,50L89,53L74,53ZM92,50L95,50L95,53L92,53ZM101,50L104,50L104,53L101,53ZM110,50L113,50L113,53L110,53ZM119,50L131,50L131,53L119,53ZM134,50L140,50L140,53L134,53ZM143,50L152,50L152,53L143,53ZM155,50L179,50L179,53L155,53ZM182,50L185,50L185,53L182,53ZM194,50L197,50L197,53L194,53ZM200,50L203,50L203,53L200,53ZM206,50L218,50L218,53L206,53ZM224,50L239,50L239,53L224,53ZM20,53L23,53L23,56L20,56ZM35,53L38,53L38,56L35,56ZM53,53L65,53L65,56L53,56ZM68,53L74,53L74,56L68,56ZM86,53L89,53L89,56L86,56ZM92,53L98,53L98,56L92,56ZM107,53L119,53L119,56L107,56ZM128,53L134,53L134,56L128,56ZM143,53L161,53L161,56L143,56ZM164,53L167,53L167,56L164,56ZM170,53L173,53L173,56L170,56ZM176,53L179,53L179,56L176,56ZM191,53L194,53L194,56L191,56ZM200,53L203,53L203,56L200,56ZM206,53L212,53L212,56L206,56ZM215,53L218,53L218,56L215,56ZM221,53L233,53L233,56L221,56ZM236,53L239,53L239,56L236,56ZM23,56L35,56L35,59L23,59ZM38,56L41,56L41,59L38,59ZM47,56L53,56L53,59L47,59ZM56,56L77,56L77,59L56,59ZM80,56L86,56L86,59L80,59ZM101,56L104,56L104,59L101,59ZM113,56L116,56L116,59L113,59ZM119,56L131,56L131,59L119,59ZM134,56L137,56L137,59L134,59ZM140,56L143,56L143,59L140,59ZM146,56L149,56L149,59L146,59ZM161,56L164,56L164,59L161,59ZM170,56L176,56L176,59L170,59ZM185,56L191,56L191,59L185,59ZM194,56L203,56L203,59L194,59ZM206,56L209,56L209,59L206,59ZM215,56L221,56L221,59L215,59ZM227,56L230,56L230,59L227,59ZM233,56L239,56L239,59L233,59ZM26,59L29,59L29,62L26,62ZM47,59L50,59L50,62L47,62ZM71,59L74,59L74,62L71,62ZM77,59L80,59L80,62L77,62ZM95,59L98,59L98,62L95,62ZM104,59L110,59L110,62L104,62ZM131,59L146,59L146,62L131,62ZM152,59L155,59L155,62L152,62ZM161,59L170,59L170,62L161,62ZM176,59L179,59L179,62L176,62ZM185,59L188,59L188,62L185,62ZM206,59L215,59L215,62L206,62ZM218,59L224,59L224,62L218,62ZM233,59L236,59L236,62L233,62ZM20,62L23,62L23,65L20,65ZM26,62L32,62L32,65L26,65ZM35,62L50,62L50,65L35,65ZM59,62L65,62L65,65L59,65ZM68,62L71,62L71,65L68,65ZM77,62L89,62L89,65L77,65ZM92,62L98,62L98,65L92,65ZM101,62L110,62L110,65L101,65ZM113,62L116,62L116,65L113,65ZM119,62L122,62L122,65L119,65ZM125,62L134,62L134,65L125,65ZM155,62L164,62L164,65L155,65ZM173,62L176,62L176,65L173,65ZM182,62L185,62L185,65L182,65ZM200,62L206,62L206,65L200,65ZM215,62L221,62L221,65L215,65ZM224,62L227,62L227,65L224,65ZM230,62L239,62L239,65L230,65ZM23,65L35,65L35,68L23,68ZM44,65L53,65L53,68L44,68ZM62,65L74,65L74,68L62,68ZM77,65L83,65L83,68L77,68ZM95,65L98,65L98,68L95,68ZM104,65L113,65L113,68L104,68ZM125,65L128,65L128,68L125,68ZM131,65L134,65L134,68L131,68ZM140,65L152,65L152,68L140,68ZM182,65L188,65L188,68L182,68ZM191,65L203,65L203,68L191,68ZM209,65L215,65L215,68L209,68ZM227,65L236,65L236,68L227,68ZM23,68L29,68L29,71L23,71ZM35,68L41,68L41,71L35,71ZM50,68L53,68L53,71L50,71ZM56,68L62,68L62,71L56,71ZM65,68L77,68L77,71L65,71ZM83,68L89,68L89,71L83,71ZM92,68L95,68L95,71L92,71ZM101,68L107,68L107,71L101,71ZM110,68L113,68L113,71L110,71ZM119,68L122,68L122,71L119,71ZM125,68L131,68L131,71L125,71ZM137,68L140,68L140,71L137,71ZM143,68L146,68L146,71L143,71ZM149,68L152,68L152,71L149,71ZM155,68L182,68L182,71L155,71ZM185,68L197,68L197,71L185,71ZM200,68L209,68L209,71L200,71ZM212,68L215,68L215,71L212,71ZM218,68L230,68L230,71L218,71ZM233,68L239,68L239,71L233,71ZM20,71L23,71L23,74L20,74ZM35,71L38,71L38,74L35,74ZM44,71L47,71L47,74L44,74ZM53,71L65,71L65,74L53,74ZM68,71L71,71L71,74L68,74ZM95,71L98,71L98,74L95,74ZM101,71L116,71L116,74L101,74ZM119,71L131,71L131,74L119,74ZM134,71L143,71L143,74L134,74ZM149,71L155,71L155,74L149,74ZM158,71L161,71L161,74L158,74ZM173,71L179,71L179,74L173,74ZM185,71L191,71L191,74L185,74ZM197,71L200,71L200,74L197,74ZM203,71L206,71L206,74L203,74ZM215,71L218,71L218,74L215,74ZM236,71L239,71L239,74L236,74ZM23,74L29,74L29,77L23,77ZM38,74L41,74L41,77L38,77ZM50,74L59,74L59,77L50,77ZM62,74L68,74L68,77L62,77ZM71,74L86,74L86,77L71,77ZM92,74L98,74L98,77L92,77ZM101,74L104,74L104,77L101,77ZM113,74L116,74L116,77L113,77ZM119,74L122,74L122,77L119,77ZM125,74L131,74L131,77L125,77ZM134,74L137,74L137,77L134,77ZM143,74L149,74L149,77L143,77ZM155,74L164,74L164,77L155,77ZM173,74L176,74L176,77L173,77ZM182,74L185,74L185,77L182,77ZM188,74L191,74L191,77L188,77ZM194,74L197,74L197,77L194,77ZM206,74L209,74L209,77L206,77ZM212,74L215,74L215,77L212,77ZM224,74L227,74L227,77L224,77ZM230,74L233,74L233,77L230,77ZM23,77L29,77L29,80L23,80ZM41,77L44,77L44,80L41,80ZM50,77L56,77L56,80L50,80ZM65,77L74,77L74,80L65,80ZM83,77L86,77L86,80L83,80ZM89,77L95,77L95,80L89,80ZM110,77L113,77L113,80L110,80ZM116,77L119,77L119,80L116,80ZM128,77L134,77L134,80L128,80ZM137,77L140,77L140,80L137,80ZM143,77L161,77L161,80L143,80ZM164,77L167,77L167,80L164,80ZM170,77L176,77L176,80L170,80ZM182,77L194,77L194,80L182,80ZM197,77L203,77L203,80L197,80ZM206,77L215,77L215,80L206,80ZM218,77L221,77L221,80L218,80ZM233,77L239,77L239,80L233,80ZM23,80L29,80L29,83L23,83ZM32,80L35,80L35,83L32,83ZM38,80L50,80L50,83L38,83ZM53,80L56,80L56,83L53,83ZM62,80L65,80L65,83L62,83ZM71,80L77,80L77,83L71,83ZM83,80L92,80L92,83L83,83ZM104,80L110,80L110,83L104,83ZM113,80L116,80L116,83L113,83ZM125,80L131,80L131,83L125,83ZM155,80L161,80L161,83L155,83ZM164,80L173,80L173,83L164,83ZM176,80L182,80L182,83L176,83ZM188,80L197,80L197,83L188,83ZM203,80L209,80L209,83L203,83ZM215,80L227,80L227,83L215,83ZM230,80L239,80L239,83L230,83ZM26,83L38,83L38,86L26,86ZM41,83L50,83L50,86L41,86ZM53,83L56,83L56,86L53,86ZM65,83L71,83L71,86L65,86ZM80,83L86,83L86,86L80,86ZM98,83L104,83L104,86L98,86ZM107,83L116,83L116,86L107,86ZM119,83L134,83L134,86L119,86ZM137,83L140,83L140,86L137,86ZM146,83L152,83L152,86L146,86ZM155,83L161,83L161,86L155,86ZM167,83L170,83L170,86L167,86ZM176,83L179,83L179,86L176,86ZM182,83L197,83L197,86L182,86ZM233,83L239,83L239,86L233,86ZM23,86L26,86L26,89L23,89ZM29,86L41,86L41,89L29,89ZM44,86L47,86L47,89L44,89ZM59,86L62,86L62,89L59,89ZM68,86L71,86L71,89L68,89ZM74,86L80,86L80,89L74,89ZM83,86L89,86L89,89L83,89ZM95,86L98,86L98,89L95,89ZM104,86L107,86L107,89L104,89ZM110,86L116,86L116,89L110,89ZM125,86L137,86L137,89L125,89ZM143,86L149,86L149,89L143,89ZM152,86L158,86L158,89L152,89ZM161,86L167,86L167,89L161,89ZM170,86L179,86L179,89L170,89ZM200,86L203,86L203,89L200,89ZM206,86L215,86L215,89L206,89ZM221,86L230,86L230,89L221,89ZM236,86L239,86L239,89L236,89ZM23,89L29,89L29,92L23,92ZM32,89L38,89L38,92L32,92ZM41,89L47,89L47,92L41,92ZM50,89L62,89L62,92L50,92ZM65,89L68,89L68,92L65,92ZM71,89L74,89L74,92L71,92ZM80,89L83,89L83,92L80,92ZM86,89L95,89L95,92L86,92ZM98,89L104,89L104,92L98,92ZM107,89L113,89L113,92L107,92ZM131,89L134,89L134,92L131,92ZM137,89L161,89L161,92L137,92ZM164,89L167,89L167,92L164,92ZM170,89L173,89L173,92L170,92ZM182,89L185,89L185,92L182,92ZM191,89L194,89L194,92L191,92ZM200,89L203,89L203,92L200,92ZM209,89L215,89L215,92L209,92ZM221,89L236,89L236,92L221,92ZM20,92L29,92L29,95L20,95ZM32,92L47,92L47,95L32,95ZM50,92L53,92L53,95L50,95ZM65,92L68,92L68,95L65,95ZM71,92L77,92L77,95L71,95ZM83,92L86,92L86,95L83,95ZM92,92L113,92L113,95L92,95ZM125,92L128,92L128,95L125,95ZM131,92L140,92L140,95L131,95ZM143,92L146,92L146,95L143,95ZM152,92L185,92L185,95L152,95ZM188,92L191,92L191,95L188,95ZM194,92L197,92L197,95L194,95ZM203,92L233,92L233,95L203,95ZM20,95L35,95L35,98L20,98ZM44,95L59,95L59,98L44,98ZM62,95L68,95L68,98L62,98ZM74,95L77,95L77,98L74,98ZM83,95L95,95L95,98L83,98ZM104,95L107,95L107,98L104,98ZM113,95L125,95L125,98L113,98ZM128,95L131,95L131,98L128,98ZM140,95L143,95L143,98L140,98ZM146,95L149,95L149,98L146,98ZM152,95L155,95L155,98L152,98ZM164,95L167,95L167,98L164,98ZM176,95L194,95L194,98L176,98ZM197,95L200,95L200,98L197,98ZM206,95L215,95L215,98L206,98ZM224,95L227,95L227,98L224,98ZM20,98L23,98L23,101L20,101ZM26,98L29,98L29,101L26,101ZM32,98L35,98L35,101L32,101ZM38,98L41,98L41,101L38,101ZM44,98L59,98L59,101L44,101ZM68,98L71,98L71,101L68,101ZM74,98L89,98L89,101L74,101ZM92,98L95,98L95,101L92,101ZM98,98L101,98L101,101L98,101ZM104,98L113,98L113,101L104,101ZM125,98L134,98L134,101L125,101ZM146,98L149,98L149,101L146,101ZM152,98L155,98L155,101L152,101ZM158,98L161,98L161,101L158,101ZM164,98L167,98L167,101L164,101ZM173,98L176,98L176,101L173,101ZM179,98L182,98L182,101L179,101ZM206,98L209,98L209,101L206,101ZM212,98L215,98L215,101L212,101ZM218,98L221,98L221,101L218,101ZM224,98L227,98L227,101L224,101ZM230,98L233,98L233,101L230,101ZM236,98L239,98L239,101L236,101ZM20,101L35,101L35,104L20,104ZM44,101L47,101L47,104L44,104ZM53,101L59,101L59,104L53,104ZM65,101L68,101L68,104L65,104ZM71,101L74,101L74,104L71,104ZM80,101L83,101L83,104L80,104ZM86,101L89,101L89,104L86,104ZM92,101L95,101L95,104L92,104ZM104,101L119,101L119,104L104,104ZM125,101L128,101L128,104L125,104ZM131,101L134,101L134,104L131,104ZM137,101L149,101L149,104L137,104ZM152,101L155,101L155,104L152,104ZM164,101L167,101L167,104L164,104ZM170,101L179,101L179,104L170,104ZM185,101L188,101L188,104L185,104ZM191,101L203,101L203,104L191,104ZM212,101L215,101L215,104L212,104ZM224,101L227,101L227,104L224,104ZM233,101L236,101L236,104L233,104ZM29,104L47,104L47,107L29,107ZM53,104L56,104L56,107L53,107ZM68,104L71,104L71,107L68,107ZM74,104L77,104L77,107L74,107ZM86,104L113,104L113,107L86,107ZM119,104L122,104L122,107L119,107ZM125,104L140,104L140,107L125,107ZM149,104L167,104L167,107L149,107ZM170,104L173,104L173,107L170,107ZM179,104L182,104L182,107L179,107ZM185,104L191,104L191,107L185,107ZM194,104L197,104L197,107L194,107ZM200,104L209,104L209,107L200,107ZM212,104L230,104L230,107L212,107ZM236,104L239,104L239,107L236,107ZM20,107L26,107L26,110L20,110ZM29,107L38,107L38,110L29,110ZM56,107L62,107L62,110L56,110ZM65,107L68,107L68,110L65,110ZM71,107L74,107L74,110L71,110ZM80,107L86,107L86,110L80,110ZM89,107L98,107L98,110L89,110ZM104,107L107,107L107,110L104,110ZM110,107L113,107L113,110L110,110ZM116,107L125,107L125,110L116,110ZM134,107L137,107L137,110L134,110ZM143,107L146,107L146,110L143,110ZM152,107L155,107L155,110L152,110ZM164,107L173,107L173,110L164,110ZM176,107L182,107L182,110L176,110ZM185,107L194,107L194,110L185,110ZM197,107L200,107L200,110L197,110ZM206,107L212,107L212,110L206,110ZM215,107L221,107L221,110L215,110ZM224,107L227,107L227,110L224,110ZM26,110L32,110L32,113L26,113ZM38,110L47,110L47,113L38,113ZM53,110L59,110L59,113L53,113ZM65,110L68,110L68,113L65,113ZM74,110L77,110L77,113L74,113ZM83,110L86,110L86,113L83,113ZM104,110L110,110L110,113L104,113ZM113,110L116,110L116,113L113,113ZM119,110L122,110L122,113L119,113ZM125,110L131,110L131,113L125,113ZM152,110L155,110L155,113L152,113ZM158,110L161,110L161,113L158,113ZM167,110L170,110L170,113L167,113ZM173,110L179,110L179,113L173,113ZM182,110L185,110L185,113L182,113ZM188,110L197,110L197,113L188,113ZM203,110L209,110L209,113L203,113ZM230,110L239,110L239,113L230,113ZM20,113L23,113L23,116L20,116ZM26,113L29,113L29,116L26,116ZM32,113L38,113L38,116L32,116ZM41,113L47,113L47,116L41,116ZM59,113L74,113L74,116L59,116ZM80,113L83,113L83,116L80,116ZM86,113L107,113L107,116L86,116ZM110,113L113,113L113,116L110,116ZM116,113L119,113L119,116L116,116ZM128,113L131,113L131,116L128,116ZM140,113L149,113L149,116L140,116ZM155,113L158,113L158,116L155,116ZM161,113L164,113L164,116L161,116ZM173,113L179,113L179,116L173,116ZM191,113L194,113L194,116L191,116ZM200,113L203,113L203,116L200,116ZM206,113L215,113L215,116L206,116ZM218,113L221,113L221,116L218,116ZM224,113L230,113L230,116L224,116ZM233,113L239,113L239,116L233,116ZM23,116L26,116L26,119L23,119ZM38,116L41,116L41,119L38,119ZM44,116L50,116L50,119L44,119ZM53,116L56,116L56,119L53,119ZM59,116L62,116L62,119L59,119ZM68,116L71,116L71,119L68,119ZM77,116L89,116L89,119L77,119ZM92,116L95,116L95,119L92,119ZM98,116L101,116L101,119L98,119ZM107,116L110,116L110,119L107,119ZM113,116L125,116L125,119L113,119ZM131,116L140,116L140,119L131,119ZM143,116L152,116L152,119L143,119ZM155,116L161,116L161,119L155,119ZM167,116L179,116L179,119L167,119ZM188,116L197,116L197,119L188,119ZM200,116L209,116L209,119L200,119ZM215,116L218,116L218,119L215,119ZM227,116L230,116L230,119L227,119ZM233,116L239,116L239,119L233,119ZM20,119L23,119L23,122L20,122ZM29,119L32,119L32,122L29,122ZM35,119L38,119L38,122L35,122ZM47,119L50,119L50,122L47,122ZM56,119L59,119L59,122L56,122ZM62,119L65,119L65,122L62,122ZM68,119L71,119L71,122L68,122ZM74,119L77,119L77,122L74,122ZM83,119L86,119L86,122L83,122ZM89,119L92,119L92,122L89,122ZM95,119L104,119L104,122L95,122ZM110,119L113,119L113,122L110,122ZM116,119L119,119L119,122L116,122ZM146,119L149,119L149,122L146,122ZM152,119L164,119L164,122L152,122ZM167,119L170,119L170,122L167,122ZM173,119L179,119L179,122L173,122ZM188,119L194,119L194,122L188,122ZM215,119L227,119L227,122L215,122ZM233,119L236,119L236,122L233,122ZM26,122L29,122L29,125L26,125ZM35,122L41,122L41,125L35,125ZM44,122L56,122L56,125L44,125ZM68,122L71,122L71,125L68,125ZM80,122L83,122L83,125L80,125ZM101,122L104,122L104,125L101,125ZM107,122L110,122L110,125L107,125ZM113,122L116,122L116,125L113,125ZM119,122L122,122L122,125L119,125ZM125,122L131,122L131,125L125,125ZM134,122L137,122L137,125L134,125ZM143,122L152,122L152,125L143,125ZM164,122L170,122L170,125L164,125ZM173,122L176,122L176,125L173,125ZM191,122L197,122L197,125L191,125ZM203,122L209,122L209,125L203,125ZM212,122L215,122L215,125L212,125ZM218,122L221,122L221,125L218,125ZM227,122L233,122L233,125L227,125ZM236,122L239,122L239,125L236,125ZM23,125L26,125L26,128L23,128ZM32,125L35,125L35,128L32,128ZM56,125L62,125L62,128L56,128ZM68,125L71,125L71,128L68,128ZM74,125L77,125L77,128L74,128ZM86,125L92,125L92,128L86,128ZM95,125L98,125L98,128L95,128ZM101,125L104,125L104,128L101,128ZM107,125L116,125L116,128L107,128ZM125,125L128,125L128,128L125,128ZM137,125L140,125L140,128L137,128ZM143,125L149,125L149,128L143,128ZM152,125L164,125L164,128L152,128ZM170,125L176,125L176,128L170,128ZM191,125L194,125L194,128L191,128ZM197,125L203,125L203,128L197,128ZM206,125L215,125L215,128L206,128ZM26,128L29,128L29,131L26,131ZM32,128L35,128L35,131L32,131ZM38,128L41,128L41,131L38,131ZM44,128L47,128L47,131L44,131ZM53,128L65,128L65,131L53,131ZM68,128L71,128L71,131L68,131ZM77,128L80,128L80,131L77,131ZM89,128L95,128L95,131L89,131ZM101,128L104,128L104,131L101,131ZM110,128L113,128L113,131L110,131ZM119,128L125,128L125,131L119,131ZM128,128L137,128L137,131L128,131ZM143,128L152,128L152,131L143,131ZM158,128L161,128L161,131L158,131ZM164,128L182,128L182,131L164,131ZM185,128L188,128L188,131L185,131ZM194,128L215,128L215,131L194,131ZM224,128L230,128L230,131L224,131ZM233,128L239,128L239,131L233,131ZM20,131L23,131L23,134L20,134ZM29,131L38,131L38,134L29,134ZM59,131L62,131L62,134L59,134ZM68,131L71,131L71,134L68,134ZM74,131L95,131L95,134L74,134ZM98,131L104,131L104,134L98,134ZM113,131L116,131L116,134L113,134ZM122,131L128,131L128,134L122,134ZM140,131L149,131L149,134L140,134ZM155,131L158,131L158,134L155,134ZM161,131L173,131L173,134L161,134ZM176,131L185,131L185,134L176,134ZM188,131L194,131L194,134L188,134ZM206,131L209,131L209,134L206,134ZM218,131L224,131L224,134L218,134ZM233,131L239,131L239,134L233,134ZM20,134L23,134L23,137L20,137ZM29,134L35,134L35,137L29,137ZM38,134L41,134L41,137L38,137ZM47,134L53,134L53,137L47,137ZM62,134L65,134L65,137L62,137ZM80,134L86,134L86,137L80,137ZM89,134L92,134L92,137L89,137ZM101,134L104,134L104,137L101,137ZM113,134L116,134L116,137L113,137ZM119,134L125,134L125,137L119,137ZM128,134L134,134L134,137L128,137ZM143,134L146,134L146,137L143,137ZM149,134L155,134L155,137L149,137ZM173,134L179,134L179,137L173,137ZM188,134L191,134L191,137L188,137ZM194,134L197,134L197,137L194,137ZM209,134L218,134L218,137L209,137ZM221,134L224,134L224,137L221,137ZM230,134L233,134L233,137L230,137ZM236,134L239,134L239,137L236,137ZM20,137L29,137L29,140L20,140ZM32,137L35,137L35,140L32,140ZM41,137L44,137L44,140L41,140ZM50,137L53,137L53,140L50,140ZM56,137L59,137L59,140L56,140ZM62,137L68,137L68,140L62,140ZM92,137L98,137L98,140L92,140ZM104,137L119,137L119,140L104,140ZM128,137L134,137L134,140L128,140ZM137,137L149,137L149,140L137,140ZM155,137L167,137L167,140L155,140ZM173,137L179,137L179,140L173,140ZM185,137L194,137L194,140L185,140ZM200,137L203,137L203,140L200,140ZM212,137L215,137L215,140L212,140ZM221,137L224,137L224,140L221,140ZM227,137L233,137L233,140L227,140ZM236,137L239,137L239,140L236,140ZM23,140L32,140L32,143L23,143ZM38,140L50,140L50,143L38,143ZM53,140L59,140L59,143L53,143ZM62,140L74,140L74,143L62,143ZM77,140L86,140L86,143L77,143ZM89,140L92,140L92,143L89,143ZM95,140L98,140L98,143L95,143ZM107,140L113,140L113,143L107,143ZM122,140L125,140L125,143L122,143ZM128,140L134,140L134,143L128,143ZM143,140L152,140L152,143L143,143ZM155,140L161,140L161,143L155,143ZM167,140L170,140L170,143L167,143ZM173,140L176,140L176,143L173,143ZM179,140L182,140L182,143L179,143ZM185,140L188,140L188,143L185,143ZM194,140L206,140L206,143L194,143ZM209,140L215,140L215,143L209,143ZM218,140L224,140L224,143L218,143ZM236,140L239,140L239,143L236,143ZM20,143L29,143L29,146L20,146ZM41,143L47,143L47,146L41,146ZM74,143L80,143L80,146L74,146ZM89,143L92,143L92,146L89,146ZM95,143L98,143L98,146L95,146ZM119,143L122,143L122,146L119,146ZM125,143L134,143L134,146L125,146ZM137,143L143,143L143,146L137,146ZM152,143L158,143L158,146L152,146ZM164,143L167,143L167,146L164,146ZM170,143L173,143L173,146L170,146ZM176,143L179,143L179,146L176,146ZM182,143L188,143L188,146L182,146ZM197,143L200,143L200,146L197,146ZM203,143L206,143L206,146L203,146ZM215,143L221,143L221,146L215,146ZM224,143L227,143L227,146L224,146ZM233,143L239,143L239,146L233,146ZM20,146L23,146L23,149L20,149ZM26,146L44,146L44,149L26,149ZM53,146L56,146L56,149L53,149ZM59,146L62,146L62,149L59,149ZM65,146L68,146L68,149L65,149ZM77,146L89,146L89,149L77,149ZM92,146L95,146L95,149L92,149ZM98,146L104,146L104,149L98,149ZM107,146L116,146L116,149L107,149ZM119,146L122,146L122,149L119,149ZM125,146L131,146L131,149L125,149ZM134,146L137,146L137,149L134,149ZM149,146L152,146L152,149L149,149ZM158,146L161,146L161,149L158,149ZM164,146L167,146L167,149L164,149ZM173,146L185,146L185,149L173,149ZM194,146L197,146L197,149L194,149ZM203,146L212,146L212,149L203,149ZM215,146L221,146L221,149L215,149ZM230,146L239,146L239,149L230,149ZM20,149L23,149L23,152L20,152ZM41,149L44,149L44,152L41,152ZM50,149L65,149L65,152L50,152ZM68,149L71,149L71,152L68,152ZM83,149L98,149L98,152L83,152ZM101,149L119,149L119,152L101,152ZM131,149L134,149L134,152L131,152ZM140,149L149,149L149,152L140,152ZM152,149L158,149L158,152L152,152ZM170,149L179,149L179,152L170,152ZM185,149L188,149L188,152L185,152ZM191,149L197,149L197,152L191,152ZM200,149L203,149L203,152L200,152ZM209,149L212,149L212,152L209,152ZM224,149L227,149L227,152L224,152ZM32,152L47,152L47,155L32,155ZM50,152L53,152L53,155L50,155ZM56,152L59,152L59,155L56,155ZM62,152L71,152L71,155L62,155ZM80,152L89,152L89,155L80,155ZM92,152L107,152L107,155L92,155ZM125,152L131,152L131,155L125,155ZM152,152L173,152L173,155L152,155ZM179,152L182,152L182,155L179,155ZM185,152L188,152L188,155L185,155ZM191,152L197,152L197,155L191,155ZM203,152L209,152L209,155L203,155ZM212,152L230,152L230,155L212,155ZM236,152L239,152L239,155L236,155ZM26,155L29,155L29,158L26,158ZM32,155L35,155L35,158L32,158ZM44,155L47,155L47,158L44,158ZM56,155L65,155L65,158L56,158ZM77,155L80,155L80,158L77,158ZM89,155L95,155L95,158L89,158ZM104,155L107,155L107,158L104,158ZM113,155L119,155L119,158L113,158ZM128,155L134,155L134,158L128,158ZM143,155L149,155L149,158L143,158ZM152,155L155,155L155,158L152,158ZM164,155L173,155L173,158L164,158ZM176,155L179,155L179,158L176,158ZM182,155L185,155L185,158L182,158ZM188,155L200,155L200,158L188,158ZM212,155L215,155L215,158L212,158ZM224,155L227,155L227,158L224,158ZM23,158L26,158L26,161L23,161ZM32,158L35,158L35,161L32,161ZM38,158L41,158L41,161L38,161ZM44,158L47,158L47,161L44,161ZM53,158L59,158L59,161L53,161ZM62,158L68,158L68,161L62,161ZM77,158L86,158L86,161L77,161ZM92,158L95,158L95,161L92,161ZM98,158L101,158L101,161L98,161ZM104,158L107,158L107,161L104,161ZM119,158L137,158L137,161L119,161ZM146,158L149,158L149,161L146,161ZM152,158L155,158L155,161L152,161ZM158,158L161,158L161,161L158,161ZM164,158L167,158L167,161L164,161ZM173,158L179,158L179,161L173,161ZM194,158L197,158L197,161L194,161ZM200,158L203,158L203,161L200,161ZM209,158L215,158L215,161L209,161ZM218,158L221,158L221,161L218,161ZM224,158L227,158L227,161L224,161ZM233,158L239,158L239,161L233,161ZM20,161L23,161L23,164L20,164ZM29,161L35,161L35,164L29,164ZM44,161L53,161L53,164L44,164ZM56,161L59,161L59,164L56,164ZM62,161L65,161L65,164L62,164ZM68,161L74,161L74,164L68,164ZM77,161L80,161L80,164L77,164ZM86,161L95,161L95,164L86,164ZM104,161L119,161L119,164L104,164ZM125,161L134,161L134,164L125,164ZM137,161L140,161L140,164L137,164ZM143,161L155,161L155,164L143,164ZM164,161L167,161L167,164L164,164ZM173,161L176,161L176,164L173,164ZM182,161L185,161L185,164L182,164ZM188,161L203,161L203,164L188,164ZM206,161L215,161L215,164L206,164ZM224,161L233,161L233,164L224,164ZM20,164L23,164L23,167L20,167ZM26,164L29,164L29,167L26,167ZM32,164L47,164L47,167L32,167ZM56,164L59,164L59,167L56,167ZM62,164L68,164L68,167L62,167ZM74,164L107,164L107,167L74,167ZM122,164L128,164L128,167L122,167ZM143,164L149,164L149,167L143,167ZM152,164L167,164L167,167L152,167ZM170,164L176,164L176,167L170,167ZM179,164L182,164L182,167L179,167ZM188,164L191,164L191,167L188,167ZM194,164L197,164L197,167L194,167ZM200,164L209,164L209,167L200,167ZM212,164L227,164L227,167L212,167ZM233,164L239,164L239,167L233,167ZM20,167L23,167L23,170L20,170ZM29,167L35,167L35,170L29,170ZM41,167L56,167L56,170L41,170ZM62,167L65,167L65,170L62,170ZM86,167L92,167L92,170L86,170ZM98,167L101,167L101,170L98,170ZM110,167L113,167L113,170L110,170ZM116,167L125,167L125,170L116,170ZM131,167L137,167L137,170L131,170ZM143,167L152,167L152,170L143,170ZM155,167L161,167L161,170L155,170ZM164,167L173,167L173,170L164,170ZM176,167L185,167L185,170L176,170ZM188,167L194,167L194,170L188,170ZM203,167L209,167L209,170L203,170ZM212,167L221,167L221,170L212,170ZM224,167L227,167L227,170L224,170ZM233,167L236,167L236,170L233,170ZM20,170L26,170L26,173L20,173ZM35,170L41,170L41,173L35,173ZM44,170L47,170L47,173L44,173ZM50,170L56,170L56,173L50,173ZM59,170L65,170L65,173L59,173ZM71,170L77,170L77,173L71,173ZM80,170L89,170L89,173L80,173ZM98,170L101,170L101,173L98,173ZM107,170L110,170L110,173L107,173ZM113,170L116,170L116,173L113,173ZM119,170L131,170L131,173L119,173ZM134,170L137,170L137,173L134,173ZM143,170L152,170L152,173L143,173ZM155,170L170,170L170,173L155,173ZM173,170L176,170L176,173L173,173ZM188,170L194,170L194,173L188,173ZM200,170L203,170L203,173L200,173ZM209,170L212,170L212,173L209,173ZM215,170L239,170L239,173L215,173ZM29,173L38,173L38,176L29,176ZM41,173L44,173L44,176L41,176ZM56,173L62,173L62,176L56,176ZM65,173L74,173L74,176L65,176ZM80,173L86,173L86,176L80,176ZM92,173L113,173L113,176L92,176ZM116,173L119,173L119,176L116,176ZM128,173L134,173L134,176L128,176ZM143,173L149,173L149,176L143,176ZM155,173L161,173L161,176L155,176ZM173,173L179,173L179,176L173,176ZM182,173L185,173L185,176L182,176ZM191,173L200,173L200,176L191,176ZM206,173L209,173L209,176L206,176ZM212,173L215,173L215,176L212,176ZM230,173L239,173L239,176L230,176ZM20,176L26,176L26,179L20,179ZM29,176L32,176L32,179L29,179ZM38,176L62,176L62,179L38,179ZM71,176L77,176L77,179L71,179ZM83,176L89,176L89,179L83,179ZM107,176L113,176L113,179L107,179ZM128,176L137,176L137,179L128,179ZM146,176L149,176L149,179L146,179ZM152,176L158,176L158,179L152,179ZM161,176L173,176L173,179L161,179ZM179,176L182,176L182,179L179,179ZM185,176L203,176L203,179L185,179ZM206,176L215,176L215,179L206,179ZM221,176L224,176L224,179L221,179ZM227,176L230,176L230,179L227,179ZM233,176L239,176L239,179L233,179ZM20,179L26,179L26,182L20,182ZM35,179L38,179L38,182L35,182ZM44,179L50,179L50,182L44,182ZM59,179L62,179L62,182L59,182ZM65,179L68,179L68,182L65,182ZM77,179L86,179L86,182L77,182ZM92,179L98,179L98,182L92,182ZM110,179L113,179L113,182L110,182ZM119,179L122,179L122,182L119,182ZM125,179L128,179L128,182L125,182ZM146,179L152,179L152,182L146,182ZM158,179L161,179L161,182L158,182ZM167,179L173,179L173,182L167,182ZM176,179L182,179L182,182L176,182ZM188,179L191,179L191,182L188,182ZM197,179L200,179L200,182L197,182ZM203,179L209,179L209,182L203,182ZM218,179L221,179L221,182L218,182ZM224,179L227,179L227,182L224,182ZM236,179L239,179L239,182L236,182ZM20,182L23,182L23,185L20,185ZM26,182L35,182L35,185L26,185ZM38,182L47,182L47,185L38,185ZM74,182L80,182L80,185L74,185ZM83,182L89,182L89,185L83,185ZM101,182L104,182L104,185L101,185ZM107,182L110,182L110,185L107,185ZM113,182L116,182L116,185L113,185ZM119,182L122,182L122,185L119,185ZM128,182L134,182L134,185L128,185ZM149,182L152,182L152,185L149,185ZM155,182L158,182L158,185L155,185ZM161,182L164,182L164,185L161,185ZM173,182L176,182L176,185L173,185ZM182,182L185,182L185,185L182,185ZM188,182L194,182L194,185L188,185ZM200,182L206,182L206,185L200,185ZM209,182L212,182L212,185L209,185ZM218,182L224,182L224,185L218,185ZM233,182L239,182L239,185L233,185ZM23,185L26,185L26,188L23,188ZM29,185L35,185L35,188L29,188ZM41,185L59,185L59,188L41,188ZM68,185L71,185L71,188L68,188ZM86,185L89,185L89,188L86,188ZM95,185L98,185L98,188L95,188ZM104,185L107,185L107,188L104,188ZM110,185L113,185L113,188L110,188ZM128,185L134,185L134,188L128,188ZM143,185L149,185L149,188L143,188ZM152,185L161,185L161,188L152,188ZM164,185L167,185L167,188L164,188ZM173,185L179,185L179,188L173,188ZM182,185L188,185L188,188L182,188ZM191,185L194,185L194,188L191,188ZM197,185L203,185L203,188L197,188ZM212,185L218,185L218,188L212,188ZM221,185L224,185L224,188L221,188ZM227,185L233,185L233,188L227,188ZM26,188L29,188L29,191L26,191ZM32,188L44,188L44,191L32,191ZM47,188L56,188L56,191L47,191ZM71,188L77,188L77,191L71,191ZM80,188L86,188L86,191L80,191ZM89,188L98,188L98,191L89,191ZM101,188L110,188L110,191L101,191ZM113,188L116,188L116,191L113,191ZM119,188L122,188L122,191L119,191ZM137,188L146,188L146,191L137,191ZM149,188L158,188L158,191L149,191ZM167,188L182,188L182,191L167,191ZM194,188L197,188L197,191L194,191ZM203,188L215,188L215,191L203,191ZM218,188L224,188L224,191L218,191ZM227,188L233,188L233,191L227,191ZM20,191L23,191L23,194L20,194ZM26,191L29,191L29,194L26,194ZM32,191L35,191L35,194L32,194ZM41,191L56,191L56,194L41,194ZM59,191L65,191L65,194L59,194ZM68,191L71,191L71,194L68,194ZM74,191L77,191L77,194L74,194ZM86,191L92,191L92,194L86,194ZM95,191L101,191L101,194L95,194ZM107,191L113,191L113,194L107,194ZM116,191L125,191L125,194L116,194ZM131,191L137,191L137,194L131,194ZM146,191L152,191L152,194L146,194ZM155,191L161,191L161,194L155,194ZM164,191L173,191L173,194L164,194ZM176,191L179,191L179,194L176,194ZM185,191L191,191L191,194L185,194ZM197,191L200,191L200,194L197,194ZM206,191L215,191L215,194L206,194ZM224,191L227,191L227,194L224,194ZM233,191L236,191L236,194L233,194ZM38,194L47,194L47,197L38,197ZM50,194L56,194L56,197L50,197ZM59,194L62,194L62,197L59,197ZM74,194L86,194L86,197L74,197ZM92,194L95,194L95,197L92,197ZM107,194L116,194L116,197L107,197ZM125,194L131,194L131,197L125,197ZM134,194L137,194L137,197L134,197ZM152,194L164,194L164,197L152,197ZM167,194L170,194L170,197L167,197ZM173,194L185,194L185,197L173,197ZM188,194L197,194L197,197L188,197ZM200,194L206,194L206,197L200,197ZM215,194L227,194L227,197L215,197ZM230,194L233,194L233,197L230,197ZM236,194L239,194L239,197L236,197ZM26,197L38,197L38,200L26,200ZM41,197L44,197L44,200L41,200ZM53,197L62,197L62,200L53,200ZM65,197L74,197L74,200L65,200ZM80,197L83,197L83,200L80,200ZM86,197L92,197L92,200L86,200ZM98,197L104,197L104,200L98,200ZM107,197L113,197L113,200L107,200ZM116,197L119,197L119,200L116,200ZM125,197L128,197L128,200L125,200ZM131,197L134,197L134,200L131,200ZM143,197L149,197L149,200L143,200ZM155,197L161,197L161,200L155,200ZM164,197L167,197L167,200L164,200ZM173,197L176,197L176,200L173,200ZM185,197L197,197L197,200L185,200ZM200,197L203,197L203,200L200,200ZM206,197L215,197L215,200L206,200ZM218,197L221,197L221,200L218,200ZM227,197L230,197L230,200L227,200ZM20,200L23,200L23,203L20,203ZM38,200L41,200L41,203L38,203ZM44,200L47,200L47,203L44,203ZM50,200L62,200L62,203L50,203ZM65,200L68,200L68,203L65,203ZM71,200L74,200L74,203L71,203ZM89,200L98,200L98,203L89,203ZM101,200L104,200L104,203L101,203ZM107,200L116,200L116,203L107,203ZM119,200L134,200L134,203L119,203ZM137,200L140,200L140,203L137,203ZM149,200L152,200L152,203L149,203ZM155,200L164,200L164,203L155,203ZM170,200L173,200L173,203L170,203ZM176,200L185,200L185,203L176,203ZM194,200L200,200L200,203L194,203ZM206,200L212,200L212,203L206,203ZM215,200L218,200L218,203L215,203ZM221,200L230,200L230,203L221,203ZM233,200L239,200L239,203L233,203ZM20,203L23,203L23,206L20,206ZM26,203L35,203L35,206L26,206ZM41,203L44,203L44,206L41,206ZM53,203L62,203L62,206L53,206ZM74,203L77,203L77,206L74,206ZM80,203L89,203L89,206L80,206ZM98,203L101,203L101,206L98,206ZM107,203L113,203L113,206L107,206ZM122,203L134,203L134,206L122,206ZM137,203L143,203L143,206L137,206ZM149,203L152,203L152,206L149,206ZM158,203L161,203L161,206L158,206ZM164,203L167,203L167,206L164,206ZM170,203L179,203L179,206L170,206ZM185,203L191,203L191,206L185,206ZM194,203L200,203L200,206L194,206ZM203,203L212,203L212,206L203,206ZM233,203L239,203L239,206L233,206ZM20,206L26,206L26,209L20,209ZM29,206L32,206L32,209L29,209ZM35,206L41,206L41,209L35,209ZM44,206L47,206L47,209L44,209ZM53,206L56,206L56,209L53,209ZM65,206L71,206L71,209L65,209ZM74,206L77,206L77,209L74,209ZM83,206L89,206L89,209L83,209ZM92,206L95,206L95,209L92,209ZM98,206L101,206L101,209L98,209ZM104,206L107,206L107,209L104,209ZM113,206L116,206L116,209L113,209ZM125,206L131,206L131,209L125,209ZM152,206L158,206L158,209L152,209ZM161,206L179,206L179,209L161,209ZM182,206L185,206L185,209L182,209ZM191,206L194,206L194,209L191,209ZM200,206L203,206L203,209L200,209ZM209,206L215,206L215,209L209,209ZM218,206L221,206L221,209L218,209ZM224,206L230,206L230,209L224,209ZM236,206L239,206L239,209L236,209ZM29,209L35,209L35,212L29,212ZM41,209L44,209L44,212L41,212ZM50,209L59,209L59,212L50,212ZM62,209L65,209L65,212L62,212ZM68,209L74,209L74,212L68,212ZM86,209L89,209L89,212L86,212ZM92,209L95,209L95,212L92,212ZM98,209L104,209L104,212L98,212ZM107,209L113,209L113,212L107,212ZM125,209L131,209L131,212L125,212ZM143,209L152,209L152,212L143,212ZM161,209L167,209L167,212L161,212ZM170,209L173,209L173,212L170,212ZM176,209L179,209L179,212L176,212ZM185,209L188,209L188,212L185,212ZM191,209L194,209L194,212L191,212ZM200,209L203,209L203,212L200,212ZM215,209L218,209L218,212L215,212ZM221,209L224,209L224,212L221,212ZM227,209L230,209L230,212L227,212ZM236,209L239,209L239,212L236,212ZM20,212L23,212L23,215L20,215ZM32,212L35,212L35,215L32,215ZM38,212L47,212L47,215L38,215ZM56,212L65,212L65,215L56,215ZM68,212L74,212L74,215L68,215ZM77,212L80,212L80,215L77,215ZM83,212L86,212L86,215L83,215ZM92,212L107,212L107,215L92,215ZM110,212L113,212L113,215L110,215ZM116,212L119,212L119,215L116,215ZM128,212L137,212L137,215L128,215ZM146,212L149,212L149,215L146,215ZM152,212L167,212L167,215L152,215ZM170,212L173,212L173,215L170,215ZM179,212L182,212L182,215L179,215ZM191,212L197,212L197,215L191,215ZM206,212L227,212L227,215L206,215ZM230,212L239,212L239,215L230,215ZM44,215L47,215L47,218L44,218ZM50,215L53,215L53,218L50,218ZM59,215L62,215L62,218L59,218ZM65,215L68,215L68,218L65,218ZM74,215L77,215L77,218L74,218ZM80,215L86,215L86,218L80,218ZM89,215L95,215L95,218L89,218ZM104,215L113,215L113,218L104,218ZM119,215L125,215L125,218L119,218ZM140,215L143,215L143,218L140,218ZM149,215L155,215L155,218L149,218ZM164,215L170,215L170,218L164,218ZM176,215L182,215L182,218L176,218ZM188,215L215,215L215,218L188,218ZM224,215L227,215L227,218L224,218ZM236,215L239,215L239,218L236,218ZM20,218L41,218L41,221L20,221ZM44,218L50,218L50,221L44,221ZM53,218L56,218L56,221L53,221ZM59,218L62,218L62,221L59,221ZM68,218L71,218L71,221L68,221ZM77,218L80,218L80,221L77,221ZM86,218L95,218L95,221L86,221ZM98,218L101,218L101,221L98,221ZM104,218L110,218L110,221L104,221ZM113,218L116,218L116,221L113,221ZM125,218L137,218L137,221L125,221ZM149,218L155,218L155,221L149,221ZM158,218L161,218L161,221L158,221ZM164,218L176,218L176,221L164,221ZM182,218L185,218L185,221L182,221ZM188,218L197,218L197,221L188,221ZM212,218L215,218L215,221L212,221ZM218,218L221,218L221,221L218,221ZM224,218L239,218L239,221L224,221ZM20,221L23,221L23,224L20,224ZM38,221L41,221L41,224L38,224ZM50,221L53,221L53,224L50,224ZM56,221L65,221L65,224L56,224ZM68,221L71,221L71,224L68,224ZM74,221L77,221L77,224L74,224ZM86,221L95,221L95,224L86,224ZM104,221L113,221L113,224L104,224ZM119,221L122,221L122,224L119,224ZM125,221L128,221L128,224L125,224ZM131,221L134,221L134,224L131,224ZM140,221L149,221L149,224L140,224ZM152,221L155,221L155,224L152,224ZM164,221L167,221L167,224L164,224ZM182,221L194,221L194,224L182,224ZM206,221L209,221L209,224L206,224ZM212,221L215,221L215,224L212,224ZM224,221L227,221L227,224L224,224ZM20,224L23,224L23,227L20,227ZM26,224L35,224L35,227L26,227ZM38,224L41,224L41,227L38,227ZM44,224L47,224L47,227L44,227ZM50,224L56,224L56,227L50,227ZM68,224L71,224L71,227L68,227ZM80,224L83,224L83,227L80,227ZM92,224L113,224L113,227L92,227ZM116,224L119,224L119,227L116,227ZM122,224L125,224L125,227L122,227ZM134,224L140,224L140,227L134,227ZM143,224L167,224L167,227L143,227ZM170,224L176,224L176,227L170,227ZM179,224L182,224L182,227L179,227ZM185,224L188,224L188,227L185,227ZM191,224L197,224L197,227L191,227ZM200,224L203,224L203,227L200,227ZM206,224L230,224L230,227L206,227ZM233,224L239,224L239,227L233,227ZM20,227L23,227L23,230L20,230ZM26,227L35,227L35,230L26,230ZM38,227L41,227L41,230L38,230ZM44,227L47,227L47,230L44,230ZM53,227L65,227L65,230L53,230ZM68,227L71,227L71,230L68,230ZM74,227L77,227L77,230L74,230ZM80,227L89,227L89,230L80,230ZM92,227L98,227L98,230L92,230ZM101,227L113,227L113,230L101,230ZM116,227L122,227L122,230L116,230ZM143,227L164,227L164,230L143,230ZM167,227L173,227L173,230L167,230ZM176,227L179,227L179,230L176,230ZM188,227L197,227L197,230L188,230ZM203,227L206,227L206,230L203,230ZM209,227L212,227L212,230L209,230ZM218,227L227,227L227,230L218,230ZM233,227L239,227L239,230L233,230ZM20,230L23,230L23,233L20,233ZM26,230L35,230L35,233L26,233ZM38,230L41,230L41,233L38,233ZM44,230L50,230L50,233L44,233ZM62,230L74,230L74,233L62,233ZM77,230L86,230L86,233L77,233ZM89,230L92,230L92,233L89,233ZM95,230L98,230L98,233L95,233ZM107,230L116,230L116,233L107,233ZM122,230L134,230L134,233L122,233ZM155,230L161,230L161,233L155,233ZM164,230L167,230L167,233L164,233ZM173,230L185,230L185,233L173,233ZM188,230L191,230L191,233L188,233ZM194,230L197,230L197,233L194,233ZM200,230L203,230L203,233L200,233ZM227,230L233,230L233,233L227,233ZM236,230L239,230L239,233L236,233ZM20,233L23,233L23,236L20,236ZM38,233L41,233L41,236L38,236ZM44,233L47,233L47,236L44,236ZM50,233L53,233L53,236L50,236ZM56,233L59,233L59,236L56,236ZM71,233L74,233L74,236L71,236ZM80,233L83,233L83,236L80,236ZM86,233L89,233L89,236L86,236ZM98,233L113,233L113,236L98,236ZM116,233L119,233L119,236L116,236ZM128,233L134,233L134,236L128,236ZM137,233L140,233L140,236L137,236ZM143,233L161,233L161,236L143,236ZM170,233L173,233L173,236L170,236ZM176,233L179,233L179,236L176,236ZM182,233L194,233L194,236L182,236ZM215,233L236,233L236,236L215,236ZM20,236L41,236L41,239L20,239ZM44,236L53,236L53,239L44,239ZM56,236L59,236L59,239L56,239ZM62,236L77,236L77,239L62,239ZM89,236L92,236L92,239L89,239ZM98,236L113,236L113,239L98,239ZM119,236L128,236L128,239L119,239ZM140,236L143,236L143,239L140,239ZM146,236L149,236L149,239L146,239ZM158,236L173,236L173,239L158,239ZM176,236L179,236L179,239L176,239ZM185,236L188,236L188,239L185,239ZM203,236L209,236L209,239L203,239ZM221,236L224,236L224,239L221,239ZM227,236L239,236L239,239L227,239Z"/></svg>
