<?xml version="1.0"?>
<svg xmlns="http://www.w3.org/2000/svg" xmlns:xlink="http://www.w3.org/1999/xlink" version="1.1" width="260px" height="260px" viewBox="0 0 260 260"><rect x="0" y="0" width="260" height="260" fill="#ffffff" fill-opacity="1"/><path fill="#000000" fill-opacity="1" d="M14,14L35,14L35,17L14,17ZM41,14L44,14L44,17L41,17ZM47,14L50,14L50,17L47,17ZM53,14L62,14L62,17L53,17ZM77,14L80,14L80,17L77,17ZM83,14L86,14L86,17L83,17ZM107,14L110,14L110,17L107,17ZM122,14L125,14L125,17L122,17ZM143,14L146,14L146,17L143,17ZM149,14L152,14L152,17L149,17ZM155,14L158,14L158,17L155,17ZM161,14L185,14L185,17L161,17ZM191,14L194,14L194,17L191,17ZM197,14L212,14L212,17L197,17ZM224,14L245,14L245,17L224,17ZM14,17L17,17L17,20L14,20ZM32,17L35,17L35,20L32,20ZM38,17L41,17L41,20L38,20ZM59,17L65,17L65,20L59,20ZM68,17L80,17L80,20L68,20ZM83,17L92,17L92,20L83,20ZM95,17L101,17L101,20L95,20ZM104,17L110,17L110,20L104,20ZM116,17L128,17L128,20L116,20ZM131,17L134,17L134,20L131,20ZM140,17L146,17L146,20L140,20ZM152,17L161,17L161,20L152,20ZM167,17L179,17L179,20L167,20ZM182,17L188,17L188,20L182,20ZM194,17L200,17L200,20L194,20ZM203,17L209,17L209,20L203,20ZM212,17L215,17L215,20L212,20ZM218,17L221,17L221,20L218,20ZM224,17L227,17L227,20L224,20ZM242,17L245,17L245,20L242,20ZM14,20L17,20L17,23L14,23ZM20,20L29,20L29,23L20,23ZM32,20L35,20L35,23L32,23ZM44,20L53,20L53,23L44,23ZM56,20L68,20L68,23L56,23ZM77,20L83,20L83,23L77,23ZM86,20L89,20L89,23L86,23ZM101,20L110,20L110,23L101,23ZM122,20L125,20L125,23L122,23ZM137,20L143,20L143,23L137,23ZM152,20L155,20L155,23L152,23ZM167,20L170,20L170,23L167,23ZM176,20L179,20L179,23L176,23ZM182,20L188,20L188,23L182,23ZM194,20L197,20L197,23L194,23ZM218,20L221,20L221,23L218,23ZM224,20L227,20L227,23L224,23ZM230,20L239,20L239,23L230,23ZM242,20L245,20L245,23L242,23ZM14,23L17,23L17,26L14,26ZM20,23L29,23L29,26L20,26ZM32,23L35,23L35,26L32,26ZM38,23L47,23L47,26L38,26ZM56,23L65,23L65,26L56,26ZM68,23L74,23L74,26L68,26ZM77,23L86,23L86,26L77,26ZM89,23L92,23L92,26L89,26ZM104,23L110,23L110,26L104,26ZM113,23L137,23L137,26L113,26ZM158,23L170,23L170,26L158,26ZM179,23L182,23L182,26L179,26ZM185,23L191,23L191,26L185,26ZM197,23L206,23L206,26L197,26ZM218,23L221,23L221,26L218,26ZM224,23L227,23L227,26L224,26ZM230,23L239,23L239,26L230,26ZM242,23L245,23L245,26L242,26ZM14,26L17,26L17,29L14,29ZM20,26L29,26L29,29L20,29ZM32,26L35,26L35,29L32,29ZM41,26L44,26L44,29L41,29ZM53,26L56,26L56,29L53,29ZM62,26L65,26L65,29L62,29ZM68,26L77,26L77,29L68,29ZM80,26L110,26L110,29L80,29ZM119,26L122,26L122,29L119,29ZM134,26L137,26L137,29L134,29ZM143,26L167,26L167,29L143,29ZM170,26L173,26L173,29L170,29ZM176,26L179,26L179,29L176,29ZM182,26L188,26L188,29L182,29ZM191,26L194,26L194,29L191,29ZM200,26L221,26L221,29L200,29ZM224,26L227,26L227,29L224,29ZM230,26L239,26L239,29L230,29ZM242,26L245,26L245,29L242,29ZM14,29L17,29L17,32L14,32ZM32,29L35,29L35,32L32,32ZM38,29L44,29L44,32L38,32ZM47,29L50,29L50,32L47,32ZM59,29L65,29L65,32L59,32ZM71,29L83,29L83,32L71,32ZM86,29L89,29L89,32L86,32ZM98,29L101,29L101,32L98,32ZM107,29L110,29L110,32L107,32ZM113,29L116,29L116,32L113,32ZM122,29L128,29L128,32L122,32ZM149,29L155,29L155,32L149,32ZM164,29L170,29L170,32L164,32ZM173,29L179,29L179,32L173,32ZM188,29L191,29L191,32L188,32ZM194,29L197,29L197,32L194,32ZM200,29L215,29L215,32L200,32ZM224,29L227,29L227,32L224,32ZM242,29L245,29L245,32L242,32ZM14,32L35,32L35,35L14,35ZM38,32L41,32L41,35L38,35ZM44,32L47,32L47,35L44,35ZM50,32L53,32L53,35L50,35ZM56,32L59,32L59,35L56,35ZM62,32L65,32L65,35L62,35ZM68,32L71,32L71,35L68,35ZM74,32L77,32L77,35L74,35ZM80,32L83,32L83,35L80,35ZM86,32L89,32L89,35L86,35ZM92,32L95,32L95,35L92,35ZM98,32L101,32L101,35L98,35ZM104,32L107,32L107,35L104,35ZM110,32L113,32L113,35L110,35ZM116,32L119,32L119,35L116,35ZM122,32L125,32L125,35L122,35ZM128,32L131,32L131,35L128,35ZM134,32L137,32L137,35L134,35ZM140,32L143,32L143,35L140,35ZM146,32L149,32L149,35L146,35ZM152,32L155,32L155,35L152,35ZM158,32L161,32L161,35L158,35ZM164,32L167,32L167,35L164,35ZM170,32L173,32L173,35L170,35ZM176,32L179,32L179,35L176,35ZM182,32L185,32L185,35L182,35ZM188,32L191,32L191,35L188,35ZM194,32L197,32L197,35L194,35ZM200,32L203,32L203,35L200,35ZM206,32L209,32L209,35L206,35ZM212,32L215,32L215,35L212,35ZM218,32L221,32L221,35L218,35ZM224,32L245,32L245,35L224,35ZM41,35L50,35L50,38L41,38ZM59,35L62,35L62,38L59,38ZM68,35L71,35L71,38L68,38ZM74,35L83,35L83,38L74,38ZM86,35L89,35L89,38L86,38ZM98,35L104,35L104,38L98,38ZM119,35L128,35L128,38L119,38ZM131,35L137,35L137,38L131,38ZM140,35L146,35L146,38L140,38ZM152,35L155,35L155,38L152,38ZM164,35L170,35L170,38L164,38ZM176,35L179,35L179,38L176,38ZM185,35L188,35L188,38L185,38ZM194,35L197,35L197,38L194,38ZM203,35L206,35L206,38L203,38ZM212,35L215,35L215,38L212,38ZM14,38L29,38L29,41L14,41ZM32,38L41,38L41,41L32,41ZM44,38L50,38L50,41L44,41ZM53,38L56,38L56,41L53,41ZM71,38L74,38L74,41L71,41ZM83,38L101,38L101,41L83,41ZM107,38L110,38L110,41L107,41ZM113,38L116,38L116,41L113,41ZM122,38L125,38L125,41L122,41ZM128,38L131,38L131,41L128,41ZM137,38L143,38L143,41L137,41ZM152,38L176,38L176,41L152,41ZM179,38L191,38L191,41L179,41ZM197,38L212,38L212,41L197,41ZM221,38L224,38L224,41L221,41ZM227,38L230,38L230,41L227,41ZM233,38L236,38L236,41L233,41ZM239,38L242,38L242,41L239,41ZM17,41L23,41L23,44L17,44ZM26,41L32,41L32,44L26,44ZM35,41L38,41L38,44L35,44ZM44,41L65,41L65,44L44,44ZM68,41L71,41L71,44L68,44ZM86,41L98,41L98,44L86,44ZM101,41L104,41L104,44L101,44ZM107,41L110,41L110,44L107,44ZM119,41L125,41L125,44L119,44ZM128,41L131,41L131,44L128,44ZM140,41L143,41L143,44L140,44ZM146,41L152,41L152,44L146,44ZM155,41L161,41L161,44L155,44ZM173,41L179,41L179,44L173,44ZM182,41L194,41L194,44L182,44ZM197,41L200,41L200,44L197,44ZM212,41L221,41L221,44L212,44ZM224,41L227,41L227,44L224,44ZM230,41L236,41L236,44L230,44ZM242,41L245,41L245,44L242,44ZM14,44L26,44L26,47L14,47ZM29,44L38,44L38,47L29,47ZM41,44L44,44L44,47L41,47ZM47,44L59,44L59,47L47,47ZM62,44L65,44L65,47L62,47ZM71,44L80,44L80,47L71,47ZM89,44L92,44L92,47L89,47ZM104,44L110,44L110,47L104,47ZM113,44L119,44L119,47L113,47ZM122,44L128,44L128,47L122,47ZM137,44L146,44L146,47L137,47ZM152,44L155,44L155,47L152,47ZM161,44L164,44L164,47L161,47ZM167,44L170,44L170,47L167,47ZM176,44L179,44L179,47L176,47ZM182,44L191,44L191,47L182,47ZM203,44L206,44L206,47L203,47ZM218,44L224,44L224,47L218,47ZM230,44L233,44L233,47L230,47ZM236,44L239,44L239,47L236,47ZM17,47L20,47L20,50L17,50ZM23,47L29,47L29,50L23,50ZM35,47L41,47L41,50L35,50ZM44,47L47,47L47,50L44,50ZM50,47L53,47L53,50L50,50ZM59,47L62,47L62,50L59,50ZM65,47L71,47L71,50L65,50ZM74,47L98,47L98,50L74,50ZM101,47L110,47L110,50L101,50ZM119,47L122,47L122,50L119,50ZM125,47L128,47L128,50L125,50ZM134,47L161,47L161,50L134,50ZM164,47L170,47L170,50L164,50ZM179,47L188,47L188,50L179,50ZM200,47L203,47L203,50L200,50ZM206,47L209,47L209,50L206,50ZM212,47L215,47L215,50L212,50ZM218,47L233,47L233,50L218,50ZM239,47L245,47L245,50L239,50ZM17,50L23,50L23,53L17,53ZM32,50L35,50L35,53L32,53ZM41,50L50,50L50,53L41,53ZM56,50L59,50L59,53L56,53ZM77,50L80,50L80,53L77,53ZM83,50L86,50L86,53L83,53ZM92,50L101,50L101,53L92,53ZM104,50L110,50L110,53L104,53ZM113,50L119,50L119,53L113,53ZM125,50L128,50L128,53L125,53ZM134,50L137,50L137,53L134,53ZM140,50L146,50L146,53L140,53ZM152,50L155,50L155,53L152,53ZM158,50L164,50L164,53L158,53ZM170,50L176,50L176,53L170,53ZM179,50L182,50L182,53L179,53ZM188,50L197,50L197,53L188,53ZM200,50L206,50L206,53L200,53ZM209,50L212,50L212,53L209,53ZM215,50L221,50L221,53L215,53ZM233,50L236,50L236,53L233,53ZM17,53L23,53L23,56L17,56ZM26,53L32,53L32,56L26,56ZM35,53L38,53L38,56L35,56ZM41,53L44,53L44,56L41,56ZM56,53L59,53L59,56L56,56ZM62,53L68,53L68,56L62,56ZM71,53L77,53L77,56L71,56ZM80,53L89,53L89,56L80,56ZM98,53L101,53L101,56L98,56ZM107,53L113,53L113,56L107,56ZM125,53L128,53L128,56L125,56ZM131,53L134,53L134,56L131,56ZM143,53L158,53L158,56L143,56ZM164,53L167,53L167,56L164,56ZM170,53L173,53L173,56L170,56ZM176,53L182,53L182,56L176,56ZM185,53L188,53L188,56L185,56ZM191,53L194,53L194,56L191,56ZM197,53L200,53L200,56L197,56ZM203,53L215,53L215,56L203,56ZM224,53L239,53L239,56L224,56ZM20,56L23,56L23,59L20,59ZM32,56L35,56L35,59L32,59ZM47,56L62,56L62,59L47,59ZM74,56L92,56L92,59L74,59ZM95,56L101,56L101,59L95,59ZM107,56L110,56L110,59L107,59ZM113,56L125,56L125,59L113,59ZM140,56L143,56L143,59L140,59ZM158,56L164,56L164,59L158,59ZM167,56L179,56L179,59L167,59ZM194,56L200,56L200,59L194,59ZM203,56L206,56L206,59L203,59ZM212,56L224,56L224,59L212,59ZM227,56L236,56L236,59L227,59ZM239,56L242,56L242,59L239,59ZM23,59L32,59L32,62L23,62ZM38,59L44,59L44,62L38,62ZM50,59L53,59L53,62L50,62ZM62,59L65,59L65,62L62,62ZM77,59L80,59L80,62L77,62ZM86,59L89,59L89,62L86,62ZM101,59L110,59L110,62L101,62ZM116,59L119,59L119,62L116,62ZM125,59L128,59L128,62L125,62ZM131,59L134,59L134,62L131,62ZM137,59L143,59L143,62L137,62ZM149,59L155,59L155,62L149,62ZM167,59L173,59L173,62L167,62ZM182,59L188,59L188,62L182,62ZM206,59L209,59L209,62L206,62ZM212,59L215,59L215,62L212,62ZM224,59L227,59L227,62L224,62ZM236,59L239,59L239,62L236,62ZM242,59L245,59L245,62L242,62ZM20,62L23,62L23,65L20,65ZM26,62L29,62L29,65L26,65ZM32,62L35,62L35,65L32,65ZM38,62L50,62L50,65L38,65ZM56,62L62,62L62,65L56,65ZM65,62L68,62L68,65L65,65ZM74,62L86,62L86,65L74,65ZM95,62L107,62L107,65L95,65ZM113,62L119,62L119,65L113,65ZM122,62L131,62L131,65L122,65ZM137,62L149,62L149,65L137,65ZM152,62L155,62L155,65L152,65ZM164,62L170,62L170,65L164,65ZM173,62L176,62L176,65L173,65ZM188,62L191,62L191,65L188,65ZM197,62L206,62L206,65L197,65ZM227,62L230,62L230,65L227,65ZM233,62L242,62L242,65L233,65ZM14,65L23,65L23,68L14,68ZM38,65L41,65L41,68L38,68ZM44,65L47,65L47,68L44,68ZM56,65L59,65L59,68L56,68ZM68,65L74,65L74,68L68,68ZM77,65L80,65L80,68L77,68ZM86,65L89,65L89,68L86,68ZM92,65L101,65L101,68L92,68ZM107,65L110,65L110,68L107,68ZM116,65L122,65L122,68L116,68ZM131,65L137,65L137,68L131,68ZM146,65L152,65L152,68L146,68ZM161,65L164,65L164,68L161,68ZM173,65L176,65L176,68L173,68ZM179,65L191,65L191,68L179,68ZM206,65L212,65L212,68L206,68ZM218,65L224,65L224,68L218,68ZM230,65L233,65L233,68L230,68ZM242,65L245,65L245,68L242,68ZM17,68L20,68L20,71L17,71ZM26,68L38,68L38,71L26,71ZM41,68L44,68L44,71L41,71ZM47,68L53,68L53,71L47,71ZM62,68L65,68L65,71L62,71ZM68,68L86,68L86,71L68,71ZM89,68L92,68L92,71L89,71ZM95,68L98,68L98,71L95,71ZM113,68L116,68L116,71L113,71ZM122,68L128,68L128,71L122,71ZM140,68L149,68L149,71L140,71ZM152,68L155,68L155,71L152,71ZM158,68L161,68L161,71L158,71ZM167,68L173,68L173,71L167,71ZM176,68L179,68L179,71L176,71ZM185,68L188,68L188,71L185,71ZM194,68L209,68L209,71L194,71ZM212,68L215,68L215,71L212,71ZM218,68L227,68L227,71L218,71ZM233,68L242,68L242,71L233,71ZM20,71L32,71L32,74L20,74ZM53,71L59,71L59,74L53,74ZM71,71L74,71L74,74L71,74ZM77,71L92,71L92,74L77,74ZM101,71L107,71L107,74L101,74ZM110,71L113,71L113,74L110,74ZM122,71L128,71L128,74L122,74ZM131,71L143,71L143,74L131,74ZM146,71L158,71L158,74L146,74ZM170,71L173,71L173,74L170,74ZM176,71L188,71L188,74L176,74ZM191,71L194,71L194,74L191,74ZM203,71L209,71L209,74L203,74ZM212,71L215,71L215,74L212,74ZM218,71L221,71L221,74L218,74ZM224,71L227,71L227,74L224,74ZM230,71L233,71L233,74L230,74ZM236,71L239,71L239,74L236,74ZM20,74L23,74L23,77L20,77ZM29,74L35,74L35,77L29,77ZM50,74L53,74L53,77L50,77ZM56,74L59,74L59,77L56,77ZM68,74L74,74L74,77L68,77ZM77,74L80,74L80,77L77,77ZM95,74L101,74L101,77L95,77ZM107,74L110,74L110,77L107,77ZM113,74L116,74L116,77L113,77ZM122,74L125,74L125,77L122,77ZM128,74L134,74L134,77L128,77ZM140,74L149,74L149,77L140,77ZM152,74L155,74L155,77L152,77ZM158,74L161,74L161,77L158,77ZM164,74L167,74L167,77L164,77ZM179,74L182,74L182,77L179,77ZM188,74L212,74L212,77L188,77ZM215,74L218,74L218,77L215,77ZM221,74L224,74L224,77L221,77ZM227,74L233,74L233,77L227,77ZM14,77L20,77L20,80L14,80ZM26,77L29,77L29,80L26,80ZM35,77L41,77L41,80L35,80ZM53,77L56,77L56,80L53,80ZM59,77L62,77L62,80L59,80ZM65,77L68,77L68,80L65,80ZM77,77L83,77L83,80L77,80ZM86,77L89,77L89,80L86,80ZM101,77L104,77L104,80L101,80ZM107,77L110,77L110,80L107,80ZM113,77L116,77L116,80L113,80ZM119,77L122,77L122,80L119,80ZM131,77L134,77L134,80L131,80ZM137,77L140,77L140,80L137,80ZM149,77L152,77L152,80L149,80ZM158,77L164,77L164,80L158,80ZM176,77L188,77L188,80L176,80ZM191,77L194,77L194,80L191,80ZM197,77L200,77L200,80L197,80ZM206,77L209,77L209,80L206,80ZM212,77L215,77L215,80L212,80ZM224,77L236,77L236,80L224,80ZM242,77L245,77L245,80L242,80ZM14,80L23,80L23,83L14,83ZM32,80L38,80L38,83L32,83ZM44,80L47,80L47,83L44,83ZM53,80L56,80L56,83L53,83ZM59,80L62,80L62,83L59,83ZM68,80L71,80L71,83L68,83ZM74,80L86,80L86,83L74,83ZM89,80L95,80L95,83L89,83ZM101,80L110,80L110,83L101,83ZM122,80L131,80L131,83L122,83ZM143,80L146,80L146,83L143,83ZM149,80L173,80L173,83L149,83ZM185,80L191,80L191,83L185,83ZM194,80L200,80L200,83L194,83ZM203,80L206,80L206,83L203,83ZM209,80L212,80L212,83L209,83ZM215,80L224,80L224,83L215,83ZM236,80L242,80L242,83L236,83ZM14,83L17,83L17,86L14,86ZM20,83L26,83L26,86L20,86ZM35,83L41,83L41,86L35,86ZM50,83L53,83L53,86L50,86ZM56,83L62,83L62,86L56,86ZM65,83L68,83L68,86L65,86ZM74,83L77,83L77,86L74,86ZM80,83L83,83L83,86L80,86ZM86,83L89,83L89,86L86,86ZM92,83L95,83L95,86L92,86ZM101,83L107,83L107,86L101,86ZM110,83L113,83L113,86L110,86ZM125,83L134,83L134,86L125,86ZM137,83L152,83L152,86L137,86ZM176,83L182,83L182,86L176,86ZM185,83L191,83L191,86L185,86ZM200,83L206,83L206,86L200,86ZM212,83L215,83L215,86L212,86ZM218,83L221,83L221,86L218,86ZM227,83L233,83L233,86L227,86ZM242,83L245,83L245,86L242,86ZM17,86L41,86L41,89L17,89ZM47,86L50,86L50,89L47,89ZM56,86L62,86L62,89L56,89ZM71,86L74,86L74,89L71,89ZM86,86L101,86L101,89L86,89ZM104,86L119,86L119,89L104,89ZM128,86L131,86L131,89L128,89ZM134,86L137,86L137,89L134,89ZM140,86L143,86L143,89L140,89ZM152,86L170,86L170,89L152,89ZM179,86L182,86L182,89L179,89ZM185,86L191,86L191,89L185,89ZM194,86L197,86L197,89L194,89ZM200,86L209,86L209,89L200,89ZM215,86L242,86L242,89L215,89ZM20,89L23,89L23,92L20,92ZM26,89L29,89L29,92L26,92ZM38,89L41,89L41,92L38,92ZM44,89L47,89L47,92L44,92ZM56,89L59,89L59,92L56,92ZM62,89L65,89L65,92L62,92ZM68,89L71,89L71,92L68,92ZM74,89L77,89L77,92L74,92ZM80,89L89,89L89,92L80,92ZM98,89L101,89L101,92L98,92ZM113,89L146,89L146,92L113,92ZM149,89L155,89L155,92L149,92ZM164,89L167,89L167,92L164,92ZM170,89L173,89L173,92L170,92ZM182,89L185,89L185,92L182,92ZM188,89L194,89L194,92L188,92ZM206,89L209,89L209,92L206,92ZM212,89L221,89L221,92L212,92ZM230,89L236,89L236,92L230,92ZM20,92L23,92L23,95L20,95ZM26,92L29,92L29,95L26,95ZM32,92L35,92L35,95L32,95ZM38,92L41,92L41,95L38,95ZM50,92L53,92L53,95L50,95ZM56,92L62,92L62,95L56,95ZM71,92L74,92L74,95L71,95ZM77,92L80,92L80,95L77,95ZM86,92L89,92L89,95L86,95ZM92,92L95,92L95,95L92,95ZM98,92L101,92L101,95L98,95ZM107,92L110,92L110,95L107,95ZM113,92L116,92L116,95L113,95ZM119,92L125,92L125,95L119,95ZM134,92L140,92L140,95L134,95ZM143,92L146,92L146,95L143,95ZM149,92L155,92L155,95L149,95ZM158,92L161,92L161,95L158,95ZM164,92L173,92L173,95L164,95ZM176,92L179,92L179,95L176,95ZM182,92L188,92L188,95L182,95ZM197,92L209,92L209,95L197,95ZM218,92L221,92L221,95L218,95ZM224,92L227,92L227,95L224,95ZM230,92L233,92L233,95L230,95ZM236,92L242,92L242,95L236,95ZM17,95L20,95L20,98L17,98ZM23,95L29,95L29,98L23,98ZM38,95L47,95L47,98L38,98ZM62,95L68,95L68,98L62,98ZM77,95L83,95L83,98L77,98ZM86,95L89,95L89,98L86,98ZM98,95L101,95L101,98L98,98ZM104,95L107,95L107,98L104,98ZM110,95L113,95L113,98L110,98ZM122,95L128,95L128,98L122,98ZM137,95L155,95L155,98L137,98ZM164,95L170,95L170,98L164,98ZM185,95L191,95L191,98L185,98ZM194,95L197,95L197,98L194,98ZM200,95L206,95L206,98L200,98ZM212,95L215,95L215,98L212,98ZM218,95L221,95L221,98L218,98ZM230,95L242,95L242,98L230,98ZM23,98L41,98L41,101L23,101ZM44,98L47,98L47,101L44,101ZM50,98L53,98L53,101L50,101ZM59,98L65,98L65,101L59,101ZM68,98L77,98L77,101L68,101ZM83,98L104,98L104,101L83,101ZM119,98L143,98L143,101L119,101ZM152,98L176,98L176,101L152,101ZM188,98L200,98L200,101L188,101ZM206,98L212,98L212,101L206,101ZM218,98L233,98L233,101L218,101ZM236,98L242,98L242,101L236,101ZM14,101L17,101L17,104L14,104ZM20,101L32,101L32,104L20,104ZM35,101L38,101L38,104L35,104ZM41,101L50,101L50,104L41,104ZM56,101L74,101L74,104L56,104ZM77,101L83,101L83,104L77,104ZM89,101L101,101L101,104L89,104ZM119,101L122,101L122,104L119,104ZM128,101L131,101L131,104L128,104ZM143,101L146,101L146,104L143,104ZM149,101L152,101L152,104L149,104ZM158,101L161,101L161,104L158,104ZM164,101L167,101L167,104L164,104ZM170,101L173,101L173,104L170,104ZM179,101L188,101L188,104L179,104ZM191,101L194,101L194,104L191,104ZM197,101L200,101L200,104L197,104ZM203,101L209,101L209,104L203,104ZM212,101L218,101L218,104L212,104ZM233,101L236,101L236,104L233,104ZM242,101L245,101L245,104L242,104ZM14,104L17,104L17,107L14,107ZM20,104L23,104L23,107L20,107ZM26,104L29,104L29,107L26,107ZM32,104L38,104L38,107L32,107ZM44,104L47,104L47,107L44,107ZM50,104L56,104L56,107L50,107ZM62,104L71,104L71,107L62,107ZM74,104L86,104L86,107L74,107ZM95,104L101,104L101,107L95,107ZM104,104L110,104L110,107L104,107ZM116,104L119,104L119,107L116,107ZM122,104L125,104L125,107L122,107ZM137,104L146,104L146,107L137,107ZM149,104L152,104L152,107L149,107ZM155,104L161,104L161,107L155,107ZM164,104L179,104L179,107L164,107ZM182,104L185,104L185,107L182,107ZM188,104L191,104L191,107L188,107ZM197,104L215,104L215,107L197,107ZM218,104L221,104L221,107L218,107ZM227,104L233,104L233,107L227,107ZM236,104L239,104L239,107L236,107ZM14,107L17,107L17,110L14,110ZM23,107L26,107L26,110L23,110ZM29,107L32,107L32,110L29,110ZM38,107L41,107L41,110L38,110ZM47,107L50,107L50,110L47,110ZM53,107L62,107L62,110L53,110ZM65,107L68,107L68,110L65,110ZM80,107L92,107L92,110L80,110ZM104,107L107,107L107,110L104,110ZM110,107L113,107L113,110L110,110ZM122,107L128,107L128,110L122,110ZM131,107L140,107L140,110L131,110ZM143,107L149,107L149,110L143,110ZM152,107L173,107L173,110L152,110ZM176,107L182,107L182,110L176,110ZM185,107L194,107L194,110L185,110ZM230,107L236,107L236,110L230,110ZM239,107L245,107L245,110L239,110ZM14,110L17,110L17,113L14,113ZM23,110L29,110L29,113L23,113ZM32,110L35,110L35,113L32,113ZM44,110L47,110L47,113L44,113ZM53,110L74,110L74,113L53,113ZM80,110L86,110L86,113L80,113ZM92,110L95,110L95,113L92,113ZM101,110L107,110L107,113L101,113ZM113,110L122,110L122,113L113,113ZM128,110L131,110L131,113L128,113ZM143,110L146,110L146,113L143,113ZM149,110L155,110L155,113L149,113ZM164,110L176,110L176,113L164,113ZM197,110L212,110L212,113L197,113ZM215,110L224,110L224,113L215,113ZM230,110L233,110L233,113L230,113ZM20,113L26,113L26,116L20,116ZM38,113L56,113L56,116L38,116ZM59,113L65,113L65,116L59,116ZM74,113L80,113L80,116L74,116ZM86,113L89,113L89,116L86,116ZM92,113L95,113L95,116L92,116ZM98,113L101,113L101,116L98,116ZM104,113L107,113L107,116L104,116ZM113,113L116,113L116,116L113,116ZM131,113L134,113L134,116L131,116ZM137,113L140,113L140,116L137,116ZM143,113L152,113L152,116L143,116ZM158,113L173,113L173,116L158,116ZM176,113L191,113L191,116L176,116ZM227,113L230,113L230,116L227,116ZM233,113L236,113L236,116L233,116ZM239,113L245,113L245,116L239,116ZM14,116L17,116L17,119L14,119ZM20,116L23,116L23,119L20,119ZM29,116L35,116L35,119L29,119ZM38,116L41,116L41,119L38,119ZM47,116L50,116L50,119L47,119ZM62,116L65,116L65,119L62,119ZM68,116L83,116L83,119L68,119ZM86,116L110,116L110,119L86,119ZM119,116L122,116L122,119L119,119ZM125,116L131,116L131,119L125,119ZM140,116L146,116L146,119L140,119ZM155,116L158,116L158,119L155,119ZM167,116L170,116L170,119L167,119ZM173,116L179,116L179,119L173,119ZM182,116L188,116L188,119L182,119ZM194,116L197,116L197,119L194,119ZM200,116L206,116L206,119L200,119ZM212,116L218,116L218,119L212,119ZM224,116L233,116L233,119L224,119ZM239,116L245,116L245,119L239,119ZM17,119L20,119L20,122L17,122ZM23,119L26,119L26,122L23,122ZM29,119L32,119L32,122L29,122ZM56,119L59,119L59,122L56,122ZM65,119L68,119L68,122L65,122ZM80,119L92,119L92,122L80,122ZM95,119L110,119L110,122L95,122ZM122,119L128,119L128,122L122,122ZM131,119L146,119L146,122L131,122ZM149,119L155,119L155,122L149,122ZM158,119L161,119L161,122L158,122ZM164,119L167,119L167,122L164,122ZM170,119L173,119L173,122L170,122ZM182,119L188,119L188,122L182,122ZM191,119L197,119L197,122L191,122ZM212,119L215,119L215,122L212,122ZM218,119L227,119L227,122L218,122ZM14,122L23,122L23,125L14,125ZM29,122L47,122L47,125L29,125ZM59,122L62,122L62,125L59,125ZM65,122L74,122L74,125L65,125ZM77,122L95,122L95,125L77,125ZM104,122L107,122L107,125L104,125ZM113,122L116,122L116,125L113,125ZM119,122L122,122L122,125L119,125ZM125,122L128,122L128,125L125,125ZM131,122L140,122L140,125L131,125ZM152,122L155,122L155,125L152,125ZM167,122L182,122L182,125L167,125ZM188,122L191,122L191,125L188,125ZM197,122L200,122L200,125L197,125ZM203,122L212,122L212,125L203,125ZM215,122L221,122L221,125L215,125ZM233,122L239,122L239,125L233,125ZM14,125L20,125L20,128L14,128ZM23,125L26,125L26,128L23,128ZM29,125L32,125L32,128L29,128ZM35,125L44,125L44,128L35,128ZM47,125L50,125L50,128L47,128ZM56,125L59,125L59,128L56,128ZM65,125L68,125L68,128L65,128ZM71,125L83,125L83,128L71,128ZM86,125L92,125L92,128L86,128ZM95,125L98,125L98,128L95,128ZM104,125L107,125L107,128L104,128ZM110,125L113,125L113,128L110,128ZM125,125L128,125L128,128L125,128ZM143,125L152,125L152,128L143,128ZM161,125L185,125L185,128L161,128ZM200,125L203,125L203,128L200,128ZM212,125L215,125L215,128L212,128ZM230,125L236,125L236,128L230,128ZM242,125L245,125L245,128L242,128ZM14,128L20,128L20,131L14,131ZM23,128L41,128L41,131L23,131ZM44,128L50,128L50,131L44,131ZM53,128L56,128L56,131L53,131ZM59,128L65,128L65,131L59,131ZM68,128L71,128L71,131L68,131ZM74,128L77,128L77,131L74,131ZM83,128L89,128L89,131L83,131ZM98,128L104,128L104,131L98,131ZM107,128L110,128L110,131L107,131ZM116,128L125,128L125,131L116,131ZM137,128L143,128L143,131L137,131ZM158,128L161,128L161,131L158,131ZM164,128L176,128L176,131L164,131ZM182,128L191,128L191,131L182,131ZM197,128L200,128L200,131L197,131ZM203,128L209,128L209,131L203,131ZM215,128L218,128L218,131L215,131ZM221,128L224,128L224,131L221,131ZM227,128L233,128L233,131L227,131ZM236,128L242,128L242,131L236,131ZM14,131L23,131L23,134L14,134ZM29,131L32,131L32,134L29,134ZM35,131L38,131L38,134L35,134ZM44,131L50,131L50,134L44,134ZM53,131L56,131L56,134L53,134ZM62,131L68,131L68,134L62,134ZM74,131L77,131L77,134L74,134ZM80,131L83,131L83,134L80,134ZM86,131L92,131L92,134L86,134ZM95,131L107,131L107,134L95,134ZM113,131L116,131L116,134L113,134ZM119,131L128,131L128,134L119,134ZM134,131L146,131L146,134L134,134ZM152,131L155,131L155,134L152,134ZM158,131L164,131L164,134L158,134ZM179,131L182,131L182,134L179,134ZM185,131L197,131L197,134L185,134ZM200,131L203,131L203,134L200,134ZM215,131L218,131L218,134L215,134ZM221,131L224,131L224,134L221,134ZM227,131L230,131L230,134L227,134ZM236,131L239,131L239,134L236,134ZM242,131L245,131L245,134L242,134ZM14,134L17,134L17,137L14,137ZM20,134L23,134L23,137L20,137ZM26,134L38,134L38,137L26,137ZM50,134L53,134L53,137L50,137ZM56,134L59,134L59,137L56,137ZM68,134L71,134L71,137L68,137ZM89,134L95,134L95,137L89,137ZM98,134L101,134L101,137L98,137ZM104,134L113,134L113,137L104,137ZM119,134L128,134L128,137L119,137ZM131,134L134,134L134,137L131,137ZM140,134L143,134L143,137L140,137ZM164,134L170,134L170,137L164,137ZM173,134L176,134L176,137L173,137ZM182,134L191,134L191,137L182,137ZM197,134L206,134L206,137L197,137ZM209,134L212,134L212,137L209,137ZM215,134L233,134L233,137L215,137ZM239,134L242,134L242,137L239,137ZM17,137L20,137L20,140L17,140ZM38,137L44,137L44,140L38,140ZM53,137L62,137L62,140L53,140ZM74,137L83,137L83,140L74,140ZM86,137L89,137L89,140L86,140ZM110,137L116,137L116,140L110,140ZM137,137L146,137L146,140L137,140ZM149,137L152,137L152,140L149,140ZM158,137L161,137L161,140L158,140ZM164,137L167,137L167,140L164,140ZM170,137L173,137L173,140L170,140ZM179,137L182,137L182,140L179,140ZM188,137L197,137L197,140L188,140ZM212,137L215,137L215,140L212,140ZM221,137L224,137L224,140L221,140ZM233,137L236,137L236,140L233,140ZM14,140L17,140L17,143L14,143ZM32,140L35,140L35,143L32,143ZM38,140L41,140L41,143L38,143ZM47,140L50,140L50,143L47,143ZM59,140L65,140L65,143L59,143ZM68,140L71,140L71,143L68,143ZM77,140L80,140L80,143L77,143ZM83,140L86,140L86,143L83,143ZM92,140L98,140L98,143L92,143ZM104,140L113,140L113,143L104,143ZM122,140L125,140L125,143L122,143ZM128,140L131,140L131,143L128,143ZM137,140L143,140L143,143L137,143ZM155,140L161,140L161,143L155,143ZM167,140L173,140L173,143L167,143ZM176,140L179,140L179,143L176,143ZM182,140L188,140L188,143L182,143ZM197,140L200,140L200,143L197,143ZM203,140L221,140L221,143L203,143ZM224,140L233,140L233,143L224,143ZM236,140L242,140L242,143L236,143ZM14,143L20,143L20,146L14,146ZM35,143L47,143L47,146L35,146ZM50,143L56,143L56,146L50,146ZM74,143L77,143L77,146L74,146ZM86,143L92,143L92,146L86,146ZM95,143L98,143L98,146L95,146ZM101,143L113,143L113,146L101,146ZM125,143L128,143L128,146L125,146ZM134,143L146,143L146,146L134,146ZM161,143L170,143L170,146L161,146ZM176,143L179,143L179,146L176,146ZM185,143L194,143L194,146L185,146ZM206,143L209,143L209,146L206,146ZM221,143L227,143L227,146L221,146ZM230,143L236,143L236,146L230,146ZM239,143L245,143L245,146L239,146ZM14,146L17,146L17,149L14,149ZM23,146L29,146L29,149L23,149ZM32,146L38,146L38,149L32,149ZM41,146L47,146L47,149L41,149ZM50,146L62,146L62,149L50,149ZM68,146L92,146L92,149L68,149ZM113,146L119,146L119,149L113,149ZM122,146L134,146L134,149L122,149ZM137,146L140,146L140,149L137,149ZM143,146L161,146L161,149L143,149ZM170,146L173,146L173,149L170,149ZM197,146L203,146L203,149L197,149ZM218,146L227,146L227,149L218,149ZM23,149L29,149L29,152L23,152ZM35,149L47,149L47,152L35,152ZM50,149L53,149L53,152L50,152ZM62,149L68,149L68,152L62,152ZM74,149L77,149L77,152L74,152ZM83,149L89,149L89,152L83,152ZM95,149L101,149L101,152L95,152ZM110,149L113,149L113,152L110,152ZM116,149L125,149L125,152L116,152ZM137,149L143,149L143,152L137,152ZM146,149L149,149L149,152L146,152ZM158,149L167,149L167,152L158,152ZM170,149L173,149L173,152L170,152ZM179,149L185,149L185,152L179,152ZM197,149L200,149L200,152L197,152ZM206,149L209,149L209,152L206,152ZM212,149L218,149L218,152L212,152ZM233,149L236,149L236,152L233,152ZM242,149L245,149L245,152L242,152ZM26,152L47,152L47,155L26,155ZM59,152L62,152L62,155L59,155ZM74,152L80,152L80,155L74,155ZM83,152L101,152L101,155L83,155ZM104,152L110,152L110,155L104,155ZM116,152L125,152L125,155L116,155ZM137,152L146,152L146,155L137,155ZM149,152L170,152L170,155L149,155ZM173,152L179,152L179,155L173,155ZM188,152L191,152L191,155L188,155ZM194,152L206,152L206,155L194,155ZM209,152L239,152L239,155L209,155ZM242,152L245,152L245,155L242,155ZM26,155L29,155L29,158L26,158ZM38,155L44,155L44,158L38,158ZM53,155L56,155L56,158L53,158ZM65,155L68,155L68,158L65,158ZM74,155L89,155L89,158L74,158ZM98,155L110,155L110,158L98,158ZM119,155L125,155L125,158L119,158ZM137,155L143,155L143,158L137,158ZM149,155L155,155L155,158L149,158ZM164,155L167,155L167,158L164,158ZM170,155L173,155L173,158L170,158ZM176,155L179,155L179,158L176,158ZM182,155L188,155L188,158L182,158ZM191,155L194,155L194,158L191,158ZM206,155L209,155L209,158L206,158ZM215,155L221,155L221,158L215,158ZM230,155L233,155L233,158L230,158ZM239,155L242,155L242,158L239,158ZM14,158L17,158L17,161L14,161ZM26,158L29,158L29,161L26,161ZM32,158L35,158L35,161L32,161ZM38,158L47,158L47,161L38,161ZM59,158L65,158L65,161L59,161ZM68,158L71,158L71,161L68,161ZM80,158L83,158L83,161L80,161ZM86,158L89,158L89,161L86,161ZM92,158L95,158L95,161L92,161ZM98,158L104,158L104,161L98,161ZM116,158L122,158L122,161L116,161ZM125,158L128,158L128,161L125,161ZM131,158L134,158L134,161L131,161ZM143,158L149,158L149,161L143,161ZM152,158L155,158L155,161L152,161ZM158,158L161,158L161,161L158,161ZM164,158L170,158L170,161L164,161ZM185,158L197,158L197,161L185,161ZM200,158L209,158L209,161L200,161ZM215,158L221,158L221,161L215,161ZM224,158L227,158L227,161L224,161ZM230,158L233,158L233,161L230,161ZM14,161L20,161L20,164L14,164ZM26,161L29,161L29,164L26,164ZM38,161L44,161L44,164L38,164ZM47,161L53,161L53,164L47,164ZM56,161L59,161L59,164L56,164ZM62,161L65,161L65,164L62,164ZM68,161L77,161L77,164L68,164ZM86,161L89,161L89,164L86,164ZM98,161L101,161L101,164L98,164ZM107,161L116,161L116,164L107,164ZM146,161L149,161L149,164L146,164ZM152,161L155,161L155,164L152,164ZM164,161L173,161L173,164L164,164ZM176,161L179,161L179,164L176,164ZM182,161L185,161L185,164L182,164ZM191,161L194,161L194,164L191,164ZM197,161L209,161L209,164L197,164ZM212,161L221,161L221,164L212,164ZM230,161L236,161L236,164L230,164ZM239,161L242,161L242,164L239,164ZM14,164L20,164L20,167L14,167ZM23,164L47,164L47,167L23,167ZM56,164L59,164L59,167L56,167ZM62,164L65,164L65,167L62,167ZM74,164L80,164L80,167L74,167ZM83,164L101,164L101,167L83,167ZM119,164L128,164L128,167L119,167ZM131,164L134,164L134,167L131,167ZM140,164L146,164L146,167L140,167ZM149,164L170,164L170,167L149,167ZM185,164L188,164L188,167L185,167ZM194,164L200,164L200,167L194,167ZM203,164L215,164L215,167L203,167ZM218,164L236,164L236,167L218,167ZM14,167L17,167L17,170L14,170ZM20,167L23,167L23,170L20,170ZM44,167L53,167L53,170L44,170ZM59,167L62,167L62,170L59,170ZM89,167L92,167L92,170L89,170ZM98,167L107,167L107,170L98,170ZM110,167L113,167L113,170L110,170ZM122,167L128,167L128,170L122,170ZM131,167L137,167L137,170L131,170ZM140,167L143,167L143,170L140,170ZM146,167L149,167L149,170L146,170ZM179,167L188,167L188,170L179,170ZM191,167L197,167L197,170L191,170ZM206,167L209,167L209,170L206,170ZM212,167L218,167L218,170L212,170ZM221,167L236,167L236,170L221,170ZM239,167L245,167L245,170L239,170ZM20,170L29,170L29,173L20,173ZM32,170L35,170L35,173L32,173ZM41,170L47,170L47,173L41,173ZM50,170L53,170L53,173L50,173ZM59,170L71,170L71,173L59,173ZM77,170L83,170L83,173L77,173ZM86,170L92,170L92,173L86,173ZM95,170L101,170L101,173L95,173ZM107,170L110,170L110,173L107,173ZM113,170L122,170L122,173L113,173ZM125,170L140,170L140,173L125,173ZM146,170L152,170L152,173L146,173ZM161,170L164,170L164,173L161,173ZM170,170L173,170L173,173L170,173ZM188,170L191,170L191,173L188,173ZM197,170L209,170L209,173L197,173ZM221,170L227,170L227,173L221,173ZM239,170L245,170L245,173L239,173ZM23,173L32,173L32,176L23,176ZM35,173L38,173L38,176L35,176ZM41,173L47,173L47,176L41,176ZM50,173L56,173L56,176L50,176ZM62,173L65,173L65,176L62,176ZM68,173L80,173L80,176L68,176ZM89,173L95,173L95,176L89,176ZM101,173L107,173L107,176L101,176ZM113,173L116,173L116,176L113,176ZM131,173L137,173L137,176L131,176ZM140,173L143,173L143,176L140,176ZM149,173L158,173L158,176L149,176ZM167,173L176,173L176,176L167,176ZM182,173L188,173L188,176L182,176ZM191,173L194,173L194,176L191,176ZM200,173L203,173L203,176L200,176ZM206,173L212,173L212,176L206,176ZM215,173L218,173L218,176L215,176ZM230,173L233,173L233,176L230,176ZM239,173L245,173L245,176L239,176ZM17,176L26,176L26,179L17,179ZM29,176L35,176L35,179L29,179ZM41,176L44,176L44,179L41,179ZM50,176L56,176L56,179L50,179ZM68,176L80,176L80,179L68,179ZM86,176L89,176L89,179L86,179ZM92,176L101,176L101,179L92,179ZM104,176L110,176L110,179L104,179ZM119,176L131,176L131,179L119,179ZM143,176L146,176L146,179L143,179ZM149,176L155,176L155,179L149,179ZM161,176L170,176L170,179L161,179ZM176,176L179,176L179,179L176,179ZM182,176L191,176L191,179L182,179ZM194,176L200,176L200,179L194,179ZM203,176L206,176L206,179L203,179ZM212,176L221,176L221,179L212,179ZM227,176L230,176L230,179L227,179ZM233,176L239,176L239,179L233,179ZM14,179L20,179L20,182L14,182ZM35,179L47,179L47,182L35,182ZM50,179L56,179L56,182L50,182ZM59,179L62,179L62,182L59,182ZM68,179L71,179L71,182L68,182ZM80,179L92,179L92,182L80,182ZM98,179L104,179L104,182L98,182ZM107,179L113,179L113,182L107,182ZM119,179L128,179L128,182L119,182ZM131,179L137,179L137,182L131,182ZM140,179L143,179L143,182L140,182ZM146,179L152,179L152,182L146,182ZM158,179L161,179L161,182L158,182ZM164,179L167,179L167,182L164,182ZM170,179L173,179L173,182L170,182ZM179,179L188,179L188,182L179,182ZM191,179L197,179L197,182L191,182ZM200,179L203,179L203,182L200,182ZM206,179L209,179L209,182L206,182ZM212,179L215,179L215,182L212,182ZM218,179L227,179L227,182L218,182ZM230,179L233,179L233,182L230,182ZM239,179L242,179L242,182L239,182ZM17,182L23,182L23,185L17,185ZM29,182L35,182L35,185L29,185ZM44,182L59,182L59,185L44,185ZM62,182L65,182L65,185L62,185ZM83,182L89,182L89,185L83,185ZM95,182L98,182L98,185L95,185ZM107,182L110,182L110,185L107,185ZM116,182L119,182L119,185L116,185ZM122,182L125,182L125,185L122,185ZM131,182L134,182L134,185L131,185ZM137,182L143,182L143,185L137,185ZM149,182L152,182L152,185L149,185ZM155,182L158,182L158,185L155,185ZM167,182L179,182L179,185L167,185ZM182,182L185,182L185,185L182,185ZM188,182L191,182L191,185L188,185ZM194,182L209,182L209,185L194,185ZM218,182L224,182L224,185L218,185ZM233,182L239,182L239,185L233,185ZM20,185L26,185L26,188L20,188ZM38,185L53,185L53,188L38,188ZM68,185L71,185L71,188L68,188ZM74,185L77,185L77,188L74,188ZM89,185L92,185L92,188L89,188ZM101,185L104,185L104,188L101,188ZM107,185L110,185L110,188L107,188ZM113,185L128,185L128,188L113,188ZM140,185L146,185L146,188L140,188ZM152,185L155,185L155,188L152,188ZM170,185L173,185L173,188L170,188ZM176,185L179,185L179,188L176,188ZM182,185L185,185L185,188L182,188ZM188,185L194,185L194,188L188,188ZM197,185L200,185L200,188L197,188ZM203,185L212,185L212,188L203,188ZM218,185L227,185L227,188L218,188ZM230,185L236,185L236,188L230,188ZM239,185L245,185L245,188L239,188ZM14,188L17,188L17,191L14,191ZM23,188L29,188L29,191L23,191ZM32,188L35,188L35,191L32,191ZM44,188L56,188L56,191L44,191ZM59,188L68,188L68,191L59,191ZM71,188L83,188L83,191L71,191ZM98,188L101,188L101,191L98,191ZM104,188L110,188L110,191L104,191ZM113,188L119,188L119,191L113,191ZM122,188L131,188L131,191L122,191ZM137,188L146,188L146,191L137,191ZM161,188L173,188L173,191L161,191ZM182,188L188,188L188,191L182,191ZM194,188L209,188L209,191L194,191ZM212,188L215,188L215,191L212,191ZM227,188L233,188L233,191L227,191ZM236,188L239,188L239,191L236,191ZM14,191L17,191L17,194L14,194ZM20,191L23,191L23,194L20,194ZM41,191L53,191L53,194L41,194ZM59,191L68,191L68,194L59,194ZM74,191L77,191L77,194L74,194ZM80,191L92,191L92,194L80,194ZM95,191L98,191L98,194L95,194ZM101,191L113,191L113,194L101,194ZM125,191L128,191L128,194L125,194ZM137,191L146,191L146,194L137,194ZM152,191L161,191L161,194L152,194ZM164,191L173,191L173,194L164,194ZM179,191L197,191L197,194L179,194ZM203,191L209,191L209,194L203,194ZM215,191L218,191L218,194L215,194ZM221,191L224,191L224,194L221,194ZM227,191L233,191L233,194L227,194ZM239,191L242,191L242,194L239,194ZM14,194L17,194L17,197L14,197ZM20,194L47,194L47,197L20,197ZM53,194L59,194L59,197L53,197ZM65,194L71,194L71,197L65,197ZM89,194L92,194L92,197L89,197ZM98,194L101,194L101,197L98,197ZM107,194L110,194L110,197L107,197ZM116,194L119,194L119,197L116,197ZM122,194L125,194L125,197L122,197ZM128,194L131,194L131,197L128,197ZM137,194L143,194L143,197L137,197ZM149,194L152,194L152,197L149,197ZM173,194L176,194L176,197L173,197ZM179,194L182,194L182,197L179,197ZM185,194L191,194L191,197L185,197ZM200,194L206,194L206,197L200,197ZM209,194L212,194L212,197L209,197ZM230,194L239,194L239,197L230,197ZM14,197L17,197L17,200L14,200ZM29,197L32,197L32,200L29,200ZM35,197L38,197L38,200L35,200ZM41,197L44,197L44,200L41,200ZM50,197L53,197L53,200L50,200ZM59,197L65,197L65,200L59,200ZM71,197L80,197L80,200L71,200ZM83,197L86,197L86,200L83,200ZM92,197L95,197L95,200L92,200ZM101,197L110,197L110,200L101,200ZM113,197L116,197L116,200L113,200ZM119,197L122,197L122,200L119,200ZM125,197L128,197L128,200L125,200ZM131,197L134,197L134,200L131,200ZM137,197L143,197L143,200L137,200ZM146,197L152,197L152,200L146,200ZM155,197L161,197L161,200L155,200ZM167,197L173,197L173,200L167,200ZM179,197L185,197L185,200L179,200ZM191,197L197,197L197,200L191,200ZM200,197L203,197L203,200L200,200ZM212,197L218,197L218,200L212,200ZM227,197L236,197L236,200L227,200ZM14,200L20,200L20,203L14,203ZM23,200L26,200L26,203L23,203ZM29,200L44,200L44,203L29,203ZM59,200L62,200L62,203L59,203ZM65,200L83,200L83,203L65,203ZM86,200L98,200L98,203L86,203ZM101,200L110,200L110,203L101,203ZM113,200L116,200L116,203L113,203ZM122,200L125,200L125,203L122,203ZM137,200L146,200L146,203L137,203ZM149,200L152,200L152,203L149,203ZM161,200L173,200L173,203L161,203ZM176,200L179,200L179,203L176,203ZM197,200L215,200L215,203L197,203ZM227,200L230,200L230,203L227,203ZM233,200L242,200L242,203L233,203ZM14,203L20,203L20,206L14,206ZM26,203L32,203L32,206L26,206ZM38,203L56,203L56,206L38,206ZM62,203L65,203L65,206L62,206ZM68,203L71,203L71,206L68,206ZM77,203L80,203L80,206L77,206ZM89,203L92,203L92,206L89,206ZM101,203L110,203L110,206L101,206ZM116,203L128,203L128,206L116,206ZM134,203L143,203L143,206L134,206ZM149,203L152,203L152,206L149,206ZM164,203L167,203L167,206L164,206ZM176,203L182,203L182,206L176,206ZM185,203L188,203L188,206L185,206ZM191,203L194,203L194,206L191,206ZM203,203L206,203L206,206L203,206ZM218,203L236,203L236,206L218,206ZM239,203L245,203L245,206L239,206ZM14,206L17,206L17,209L14,209ZM29,206L41,206L41,209L29,209ZM56,206L62,206L62,209L56,209ZM65,206L71,206L71,209L65,209ZM74,206L92,206L92,209L74,209ZM98,206L101,206L101,209L98,209ZM113,206L119,206L119,209L113,209ZM122,206L125,206L125,209L122,209ZM128,206L137,206L137,209L128,209ZM143,206L152,206L152,209L143,209ZM155,206L170,206L170,209L155,209ZM185,206L191,206L191,209L185,209ZM197,206L212,206L212,209L197,209ZM218,206L224,206L224,209L218,209ZM230,206L233,206L233,209L230,209ZM14,209L17,209L17,212L14,212ZM23,209L26,209L26,212L23,212ZM44,209L50,209L50,212L44,212ZM53,209L62,209L62,212L53,212ZM65,209L74,209L74,212L65,212ZM77,209L80,209L80,212L77,212ZM83,209L86,209L86,212L83,212ZM89,209L98,209L98,212L89,212ZM101,209L110,209L110,212L101,212ZM116,209L122,209L122,212L116,212ZM128,209L134,209L134,212L128,212ZM137,209L140,209L140,212L137,212ZM146,209L155,209L155,212L146,212ZM164,209L176,209L176,212L164,212ZM182,209L194,209L194,212L182,212ZM197,209L203,209L203,212L197,212ZM206,209L209,209L209,212L206,212ZM212,209L215,209L215,212L212,212ZM218,209L221,209L221,212L218,212ZM224,209L227,209L227,212L224,212ZM230,209L236,209L236,212L230,212ZM17,212L20,212L20,215L17,215ZM26,212L35,212L35,215L26,215ZM44,212L47,212L47,215L44,215ZM56,212L59,212L59,215L56,215ZM65,212L89,212L89,215L65,215ZM92,212L95,212L95,215L92,215ZM104,212L107,212L107,215L104,215ZM113,212L116,212L116,215L113,215ZM122,212L131,212L131,215L122,215ZM143,212L149,212L149,215L143,215ZM152,212L155,212L155,215L152,215ZM158,212L161,212L161,215L158,215ZM164,212L173,212L173,215L164,215ZM176,212L179,212L179,215L176,215ZM182,212L185,212L185,215L182,215ZM188,212L191,212L191,215L188,215ZM197,212L200,212L200,215L197,215ZM203,212L209,212L209,215L203,215ZM212,212L215,212L215,215L212,215ZM227,212L230,212L230,215L227,215ZM239,212L242,212L242,215L239,215ZM26,215L29,215L29,218L26,218ZM35,215L38,215L38,218L35,218ZM47,215L50,215L50,218L47,218ZM56,215L77,215L77,218L56,218ZM80,215L83,215L83,218L80,218ZM95,215L98,215L98,218L95,218ZM101,215L113,215L113,218L101,218ZM122,215L128,215L128,218L122,218ZM137,215L143,215L143,218L137,218ZM146,215L149,215L149,218L146,218ZM152,215L155,215L155,218L152,218ZM158,215L170,215L170,218L158,218ZM179,215L182,215L182,218L179,218ZM185,215L191,215L191,218L185,218ZM218,215L221,215L221,218L218,218ZM224,215L233,215L233,218L224,218ZM242,215L245,215L245,218L242,218ZM17,218L29,218L29,221L17,221ZM32,218L35,218L35,221L32,221ZM38,218L41,218L41,221L38,221ZM44,218L47,218L47,221L44,221ZM50,218L53,218L53,221L50,221ZM56,218L71,218L71,221L56,221ZM86,218L101,218L101,221L86,221ZM104,218L110,218L110,221L104,221ZM122,218L125,218L125,221L122,221ZM146,218L149,218L149,221L146,221ZM152,218L170,218L170,221L152,221ZM182,218L185,218L185,221L182,221ZM188,218L191,218L191,221L188,221ZM200,218L203,218L203,221L200,221ZM209,218L212,218L212,221L209,221ZM218,218L239,218L239,221L218,221ZM38,221L41,221L41,224L38,224ZM44,221L47,221L47,224L44,224ZM56,221L59,221L59,224L56,224ZM62,221L71,221L71,224L62,224ZM77,221L83,221L83,224L77,224ZM86,221L89,221L89,224L86,224ZM98,221L101,221L101,224L98,224ZM107,221L113,221L113,224L107,224ZM119,221L125,221L125,224L119,224ZM128,221L131,221L131,224L128,224ZM140,221L143,221L143,224L140,224ZM149,221L155,221L155,224L149,224ZM164,221L167,221L167,224L164,224ZM170,221L173,221L173,224L170,224ZM179,221L182,221L182,224L179,224ZM185,221L188,221L188,224L185,224ZM191,221L194,221L194,224L191,224ZM197,221L203,221L203,224L197,224ZM206,221L209,221L209,224L206,224ZM212,221L221,221L221,224L212,224ZM230,221L236,221L236,224L230,224ZM239,221L245,221L245,224L239,224ZM14,224L35,224L35,227L14,227ZM38,224L47,224L47,227L38,227ZM53,224L56,224L56,227L53,227ZM71,224L89,224L89,227L71,227ZM92,224L95,224L95,227L92,227ZM98,224L104,224L104,227L98,227ZM107,224L110,224L110,227L107,227ZM113,224L116,224L116,227L113,227ZM119,224L125,224L125,227L119,227ZM128,224L131,224L131,227L128,227ZM143,224L146,224L146,227L143,227ZM149,224L155,224L155,227L149,227ZM158,224L161,224L161,227L158,227ZM164,224L170,224L170,227L164,227ZM173,224L179,224L179,227L173,227ZM182,224L185,224L185,227L182,227ZM197,224L200,224L200,227L197,227ZM203,224L206,224L206,227L203,227ZM209,224L215,224L215,227L209,227ZM218,224L221,224L221,227L218,227ZM224,224L227,224L227,227L224,227ZM230,224L233,224L233,227L230,227ZM14,227L17,227L17,230L14,230ZM32,227L35,227L35,230L32,230ZM41,227L44,227L44,230L41,230ZM47,227L53,227L53,230L47,230ZM56,227L71,227L71,230L56,230ZM80,227L89,227L89,230L80,230ZM98,227L113,227L113,230L98,230ZM125,227L134,227L134,230L125,230ZM137,227L149,227L149,230L137,230ZM152,227L155,227L155,230L152,230ZM164,227L167,227L167,230L164,230ZM176,227L179,227L179,230L176,230ZM185,227L191,227L191,230L185,230ZM194,227L197,227L197,230L194,230ZM206,227L209,227L209,230L206,230ZM218,227L221,227L221,230L218,230ZM230,227L233,227L233,230L230,230ZM236,227L242,227L242,230L236,230ZM14,230L17,230L17,233L14,233ZM20,230L29,230L29,233L20,233ZM32,230L35,230L35,233L32,233ZM38,230L50,230L50,233L38,233ZM56,230L62,230L62,233L56,233ZM71,230L77,230L77,233L71,233ZM86,230L101,230L101,233L86,233ZM113,230L119,230L119,233L113,233ZM122,230L125,230L125,233L122,233ZM128,230L131,230L131,233L128,233ZM134,230L140,230L140,233L134,233ZM143,230L146,230L146,233L143,233ZM152,230L173,230L173,233L152,233ZM188,230L191,230L191,233L188,233ZM194,230L206,230L206,233L194,233ZM209,230L215,230L215,233L209,233ZM218,230L233,230L233,233L218,233ZM236,230L239,230L239,233L236,233ZM14,233L17,233L17,236L14,236ZM20,233L29,233L29,236L20,236ZM32,233L35,233L35,236L32,236ZM38,233L44,233L44,236L38,236ZM47,233L56,233L56,236L47,236ZM62,233L65,233L65,236L62,236ZM68,233L74,233L74,236L68,236ZM77,233L92,233L92,236L77,236ZM101,233L107,233L107,236L101,236ZM110,233L116,233L116,236L110,236ZM119,233L137,233L137,236L119,236ZM140,233L146,233L146,236L140,236ZM149,233L152,233L152,236L149,236ZM161,233L167,233L167,236L161,236ZM176,233L188,233L188,236L176,236ZM191,233L194,233L194,236L191,236ZM203,233L209,233L209,236L203,236ZM215,233L218,233L218,236L215,236ZM221,233L224,233L224,236L221,236ZM14,236L17,236L17,239L14,239ZM20,236L29,236L29,239L20,239ZM32,236L35,236L35,239L32,239ZM38,236L41,236L41,239L38,239ZM44,236L50,236L50,239L44,239ZM53,236L56,236L56,239L53,239ZM59,236L68,236L68,239L59,239ZM71,236L86,236L86,239L71,239ZM92,236L98,236L98,239L92,239ZM104,236L110,236L110,239L104,239ZM119,236L125,236L125,239L119,239ZM134,236L137,236L137,239L134,239ZM140,236L146,236L146,239L140,239ZM149,236L161,236L161,239L149,239ZM164,236L179,236L179,239L164,239ZM185,236L191,236L191,239L185,239ZM194,236L206,236L206,239L194,239ZM209,236L218,236L218,239L209,239ZM221,236L230,236L230,239L221,239ZM233,236L242,236L242,239L233,239ZM14,239L17,239L17,242L14,242ZM32,239L35,239L35,242L32,242ZM38,239L44,239L44,242L38,242ZM53,239L59,239L59,242L53,242ZM62,239L68,239L68,242L62,242ZM98,239L110,239L110,242L98,242ZM122,239L128,239L128,242L122,242ZM131,239L143,239L143,242L131,242ZM146,239L149,239L149,242L146,242ZM158,239L161,239L161,242L158,242ZM164,239L173,239L173,242L164,242ZM176,239L188,239L188,242L176,242ZM200,239L209,239L209,242L200,242ZM212,239L224,239L224,242L212,242ZM230,239L233,239L233,242L230,242ZM242,239L245,239L245,242L242,242ZM14,242L35,242L35,245L14,245ZM38,242L41,242L41,245L38,245ZM44,242L50,242L50,245L44,245ZM53,242L56,242L56,245L53,245ZM59,242L62,242L62,245L59,245ZM65,242L71,242L71,245L65,245ZM74,242L95,242L95,245L74,245ZM101,242L110,242L110,245L101,245ZM113,242L116,242L116,245L113,245ZM125,242L131,242L131,245L125,245ZM134,242L137,242L137,245L134,245ZM140,242L152,242L152,245L140,245ZM155,242L164,242L164,245L155,245ZM167,242L173,242L173,245L167,245ZM179,242L182,242L182,245L179,245ZM188,242L191,242L191,245L188,245ZM197,242L206,242L206,245L197,245ZM209,242L212,242L212,245L209,245ZM215,242L233,242L233,245L215,245ZM236,242L239,242L239,245L236,245Z"/></svg>
