<?xml version="1.0"?>
<svg xmlns="http://www.w3.org/2000/svg" xmlns:xlink="http://www.w3.org/1999/xlink" version="1.1" width="260px" height="260px" viewBox="0 0 260 260"><rect x="0" y="0" width="260" height="260" fill="#ffffff" fill-opacity="1"/><path fill="#000000" fill-opacity="1" d="M14,14L70,14L70,22L14,22ZM94,14L102,14L102,22L94,22ZM110,14L142,14L142,22L110,22ZM166,14L174,14L174,22L166,22ZM190,14L246,14L246,22L190,22ZM14,22L22,22L22,30L14,30ZM62,22L70,22L70,30L62,30ZM78,22L86,22L86,30L78,30ZM94,22L102,22L102,30L94,30ZM118,22L158,22L158,30L118,30ZM190,22L198,22L198,30L190,30ZM238,22L246,22L246,30L238,30ZM14,30L22,30L22,38L14,38ZM30,30L54,30L54,38L30,38ZM62,30L70,30L70,38L62,38ZM110,30L126,30L126,38L110,38ZM134,30L142,30L142,38L134,38ZM150,30L182,30L182,38L150,38ZM190,30L198,30L198,38L190,38ZM206,30L230,30L230,38L206,38ZM238,30L246,30L246,38L238,38ZM14,38L22,38L22,46L14,46ZM30,38L54,38L54,46L30,46ZM62,38L70,38L70,46L62,46ZM78,38L102,38L102,46L78,46ZM110,38L118,38L118,46L110,46ZM126,38L142,38L142,46L126,46ZM150,38L158,38L158,46L150,46ZM190,38L198,38L198,46L190,46ZM206,38L230,38L230,46L206,46ZM238,38L246,38L246,46L238,46ZM14,46L22,46L22,54L14,54ZM30,46L54,46L54,54L30,54ZM62,46L70,46L70,54L62,54ZM86,46L94,46L94,54L86,54ZM134,46L150,46L150,54L134,54ZM166,46L182,46L182,54L166,54ZM190,46L198,46L198,54L190,54ZM206,46L230,46L230,54L206,54ZM238,46L246,46L246,54L238,54ZM14,54L22,54L22,62L14,62ZM62,54L70,54L70,62L62,62ZM78,54L94,54L94,62L78,62ZM102,54L118,54L118,62L102,62ZM150,54L158,54L158,62L150,62ZM166,54L174,54L174,62L166,62ZM190,54L198,54L198,62L190,62ZM238,54L246,54L246,62L238,62ZM14,62L70,62L70,70L14,70ZM78,62L86,62L86,70L78,70ZM94,62L102,62L102,70L94,70ZM110,62L118,62L118,70L110,70ZM126,62L134,62L134,70L126,70ZM142,62L150,62L150,70L142,70ZM158,62L166,62L166,70L158,70ZM174,62L182,62L182,70L174,70ZM190,62L246,62L246,70L190,70ZM86,70L110,70L110,78L86,78ZM126,70L134,70L134,78L126,78ZM142,70L174,70L174,78L142,78ZM14,78L54,78L54,86L14,86ZM62,78L94,78L94,86L62,86ZM102,78L110,78L110,86L102,86ZM174,78L190,78L190,86L174,86ZM198,78L206,78L206,86L198,86ZM214,78L222,78L222,86L214,86ZM230,78L238,78L238,86L230,86ZM14,86L46,86L46,94L14,94ZM70,86L86,86L86,94L70,94ZM94,86L102,86L102,94L94,94ZM110,86L142,86L142,94L110,94ZM174,86L182,86L182,94L174,94ZM190,86L198,86L198,94L190,94ZM206,86L222,86L222,94L206,94ZM230,86L238,86L238,94L230,94ZM14,94L38,94L38,102L14,102ZM46,94L70,94L70,102L46,102ZM78,94L86,94L86,102L78,102ZM94,94L102,94L102,102L94,102ZM118,94L142,94L142,102L118,102ZM150,94L166,94L166,102L150,102ZM198,94L206,94L206,102L198,102ZM214,94L230,94L230,102L214,102ZM14,102L22,102L22,110L14,110ZM30,102L38,102L38,110L30,110ZM54,102L62,102L62,110L54,110ZM78,102L86,102L86,110L78,110ZM110,102L126,102L126,110L110,110ZM134,102L142,102L142,110L134,110ZM150,102L182,102L182,110L150,110ZM190,102L222,102L222,110L190,110ZM238,102L246,102L246,110L238,110ZM14,110L22,110L22,118L14,118ZM38,110L70,110L70,118L38,118ZM86,110L102,110L102,118L86,118ZM110,110L118,110L118,118L110,118ZM126,110L142,110L142,118L126,118ZM150,110L158,110L158,118L150,118ZM198,110L214,110L214,118L198,118ZM38,118L54,118L54,126L38,126ZM70,118L94,118L94,126L70,126ZM134,118L150,118L150,126L134,126ZM182,118L190,118L190,126L182,126ZM198,118L222,118L222,126L198,126ZM230,118L238,118L238,126L230,126ZM30,126L46,126L46,134L30,134ZM62,126L70,126L70,134L62,134ZM102,126L118,126L118,134L102,134ZM134,126L158,126L158,134L134,134ZM174,126L190,126L190,134L174,134ZM214,126L246,126L246,134L214,134ZM14,134L46,134L46,142L14,142ZM54,134L62,134L62,142L54,142ZM70,134L110,134L110,142L70,142ZM126,134L134,134L134,142L126,142ZM142,134L150,134L150,142L142,142ZM166,134L214,134L214,142L166,142ZM230,134L246,134L246,142L230,142ZM30,142L54,142L54,150L30,150ZM62,142L78,142L78,150L62,150ZM86,142L94,142L94,150L86,150ZM102,142L110,142L110,150L102,150ZM134,142L150,142L150,150L134,150ZM158,142L166,142L166,150L158,150ZM174,142L182,142L182,150L174,150ZM190,142L198,142L198,150L190,150ZM206,142L214,142L214,150L206,150ZM14,150L22,150L22,158L14,158ZM38,150L54,150L54,158L38,158ZM70,150L78,150L78,158L70,158ZM86,150L102,150L102,158L86,158ZM110,150L134,150L134,158L110,158ZM158,150L166,150L166,158L158,158ZM182,150L222,150L222,158L182,158ZM230,150L238,150L238,158L230,158ZM14,158L22,158L22,166L14,166ZM46,158L78,158L78,166L46,166ZM86,158L94,158L94,166L86,166ZM118,158L158,158L158,166L118,166ZM166,158L174,158L174,166L166,166ZM198,158L206,158L206,166L198,166ZM214,158L238,158L238,166L214,166ZM14,166L22,166L22,174L14,174ZM38,166L54,166L54,174L38,174ZM70,166L86,166L86,174L70,174ZM94,166L102,166L102,174L94,174ZM110,166L126,166L126,174L110,174ZM142,166L150,166L150,174L142,174ZM158,166L182,166L182,174L158,174ZM190,166L214,166L214,174L190,174ZM230,166L246,166L246,174L230,174ZM14,174L22,174L22,182L14,182ZM30,174L70,174L70,182L30,182ZM78,174L86,174L86,182L78,182ZM110,174L118,174L118,182L110,182ZM126,174L150,174L150,182L126,182ZM158,174L166,174L166,182L158,182ZM174,174L238,174L238,182L174,182ZM78,182L102,182L102,190L78,190ZM134,182L150,182L150,190L134,190ZM174,182L182,182L182,190L174,190ZM206,182L214,182L214,190L206,190ZM230,182L238,182L238,190L230,190ZM14,190L70,190L70,198L14,198ZM78,190L94,190L94,198L78,198ZM102,190L118,190L118,198L102,198ZM134,190L142,190L142,198L134,198ZM150,190L158,190L158,198L150,198ZM166,190L182,190L182,198L166,198ZM190,190L198,190L198,198L190,198ZM206,190L230,190L230,198L206,198ZM14,198L22,198L22,206L14,206ZM62,198L70,198L70,206L62,206ZM86,198L110,198L110,206L86,206ZM126,198L134,198L134,206L126,206ZM142,198L158,198L158,206L142,206ZM174,198L182,198L182,206L174,206ZM206,198L214,198L214,206L206,206ZM222,198L246,198L246,206L222,206ZM14,206L22,206L22,214L14,214ZM30,206L54,206L54,214L30,214ZM62,206L70,206L70,214L62,214ZM78,206L86,206L86,214L78,214ZM94,206L110,206L110,214L94,214ZM134,206L142,206L142,214L134,214ZM158,206L166,206L166,214L158,214ZM174,206L214,206L214,214L174,214ZM222,206L246,206L246,214L222,214ZM14,214L22,214L22,222L14,222ZM30,214L54,214L54,222L30,222ZM62,214L70,214L70,222L62,222ZM78,214L86,214L86,222L78,222ZM94,214L102,214L102,222L94,222ZM110,214L150,214L150,222L110,222ZM166,214L190,214L190,222L166,222ZM198,214L206,214L206,222L198,222ZM14,222L22,222L22,230L14,230ZM30,222L54,222L54,230L30,230ZM62,222L70,222L70,230L62,230ZM78,222L86,222L86,230L78,230ZM94,222L102,222L102,230L94,230ZM118,222L174,222L174,230L118,230ZM190,222L206,222L206,230L190,230ZM222,222L238,222L238,230L222,230ZM14,230L22,230L22,238L14,238ZM62,230L70,230L70,238L62,238ZM78,230L86,230L86,238L78,238ZM110,230L126,230L126,238L110,238ZM142,230L166,230L166,238L142,238ZM214,230L230,230L230,238L214,238ZM238,230L246,230L246,238L238,238ZM14,238L70,238L70,246L14,246ZM78,238L94,238L94,246L78,246ZM110,238L118,238L118,246L110,246ZM126,238L158,238L158,246L126,246ZM166,238L174,238L174,246L166,246ZM190,238L198,238L198,246L190,246ZM206,238L230,238L230,246L206,246Z"/></svg>
